<svg id="main" xmlns="http://www.w3.org/2000/svg" xmlns:xlink="http://www.w3.org/1999/xlink" viewBox="0 0 511.41 281.84"><defs><style>.cls-1,.cls-5,.cls-8{fill:#13d47d;}.cls-2{fill:#3df288;}.cls-3{fill:url(#Безымянный_градиент_91);}.cls-4{fill:url(#Безымянный_градиент_90);}.cls-5,.cls-7{opacity:0.5;}.cls-10,.cls-6{fill:#fff;}.cls-6{opacity:0.35;}.cls-7{fill:#0bb887;}.cls-8{opacity:0.25;}.cls-9{opacity:0.36;}.cls-11{opacity:0.4;}.cls-12{fill:#f0f7f4;opacity:0.42;}.cls-13{fill:#224854;}</style><radialGradient id="Безымянный_градиент_91" cx="340.58" cy="347.14" fx="458.1158109069161" r="117.54" gradientUnits="userSpaceOnUse"><stop offset="0" stop-color="#00f7e3"/><stop offset="1" stop-color="#19ff66"/></radialGradient><radialGradient id="Безымянный_градиент_90" cx="377" cy="299" fx="377" r="163.37" xlink:href="#Безымянный_градиент_91"/></defs><title>chameleon</title><g id="colors"><path class="cls-1" d="M607.53,317c0-2.74.42-19.27,12.82-29,13.54-10.63,31.59-5.45,31.59-5.45s.74,18.76-12.81,29.39-31.59,5.45-31.59,5.45S607.53,317.29,607.53,317Z" transform="translate(-143.54 -189.16)"/><path class="cls-1" d="M551.74,334s18.54-3,30.71,9.2,9.2,30.71,9.2,30.71-18.54,3-30.72-9.19S551.74,334,551.74,334Z" transform="translate(-143.54 -189.16)"/><path class="cls-2" d="M516.72,252.52a30.82,30.82,0,1,1-47.4-26,30.18,30.18,0,0,1,9.08-3.92h0a30.84,30.84,0,0,1,38.32,29.89Z" transform="translate(-143.54 -189.16)"/><path class="cls-3" d="M447.45,334.48a6.37,6.37,0,0,1-6.37,6.37h0a6.37,6.37,0,0,1-6.37-6.37v-.63H391.09A23.11,23.11,0,0,0,348,317.06h2.84a13.62,13.62,0,0,1,13.62,13.62v3.8a6.37,6.37,0,0,1-6.37,6.37h0a6.37,6.37,0,0,1-6.37-6.37,6.37,6.37,0,0,1-6.37,6.37h0a6.37,6.37,0,0,1-6.37-6.37v-.63H297.05A18,18,0,0,0,279.24,349l-.15,0a11.51,11.51,0,1,0,1.11,21.17c2.43,15.8,8.51,30.93,17.74,42.8l-.63.49a17.19,17.19,0,1,0,27.16,20l0-.11A56.18,56.18,0,0,0,345,437.2,24.3,24.3,0,0,1,321,412.65a30.39,30.39,0,0,1,30.69-30.08,38,38,0,0,1,37.59,38.36,47.22,47.22,0,0,1-5.89,22.44,12.78,12.78,0,1,0-17.86,18.21,47.25,47.25,0,0,1-24.2,6.34h-.23a95.13,95.13,0,0,1-50.38-12.18,132.52,132.52,0,0,1-48.58-47.5,17.56,17.56,0,1,0-13.5-31.31,131.75,131.75,0,0,1,26.75-121.73,17.56,17.56,0,1,0,22.19-20.64A131,131,0,0,1,352,209q4.11-.11,8.15,0a23.11,23.11,0,1,0,42.42,12.69,22.34,22.34,0,0,0-.41-4.28c2.78,1,5.52,2.19,8.21,3.42.9,8,4.7,15.33,11.81,18.4-9.05,11.72-11.88,22.59-8.93,32.66a12.36,12.36,0,0,0-1.62-.11,11.52,11.52,0,1,0,10.89,15.27,61.19,61.19,0,0,0,4.71,4.43c-4.14,10.07-3.84,18.81,3.12,25.56h16.22a13.62,13.62,0,0,1,13.62,13.62v3.8a6.37,6.37,0,0,1-6.37,6.37h0A6.37,6.37,0,0,1,447.45,334.48Zm-56.88-68.85a11,11,0,1,0-11,11A10.95,10.95,0,0,0,390.57,265.63Zm-124.1,36.72A11.52,11.52,0,1,0,255,313.87,11.52,11.52,0,0,0,266.47,302.35Z" transform="translate(-143.54 -189.16)"/><path class="cls-1" d="M422.53,287.07a11.52,11.52,0,1,1-10.89-15.27,12.36,12.36,0,0,1,1.62.11C414.79,277.18,417.91,282.23,422.53,287.07Z" transform="translate(-143.54 -189.16)"/><path class="cls-1" d="M402.17,217.43a22.34,22.34,0,0,1,.41,4.28A23.11,23.11,0,1,1,360.16,209a131,131,0,0,1,42,8.4Z" transform="translate(-143.54 -189.16)"/><path class="cls-1" d="M364.49,330.68a13.62,13.62,0,0,0-13.62-13.62H348a23.11,23.11,0,0,1,43.06,16.79h-26.6Z" transform="translate(-143.54 -189.16)"/><path class="cls-1" d="M379.62,254.68a11,11,0,1,1-11,10.95A10.95,10.95,0,0,1,379.62,254.68Z" transform="translate(-143.54 -189.16)"/><path class="cls-1" d="M374.6,439.14a12.74,12.74,0,0,1,8.77,4.23,47.76,47.76,0,0,1-17.86,18.21,12.78,12.78,0,0,1,9.09-22.44Z" transform="translate(-143.54 -189.16)"/><path class="cls-1" d="M327.4,240.33a14.24,14.24,0,1,1-23.92,13.84l2.14-2.94a26.53,26.53,0,0,1,21.48-10.91Z" transform="translate(-143.54 -189.16)"/><path class="cls-1" d="M324.51,433.41l0,.11a17.2,17.2,0,1,1-27.16-20l.63-.49C305,422.11,314,429.31,324.51,433.41Z" transform="translate(-143.54 -189.16)"/><path class="cls-1" d="M277.56,234.57a17.56,17.56,0,1,1-22.19,20.64A133.6,133.6,0,0,1,277.56,234.57Z" transform="translate(-143.54 -189.16)"/><path class="cls-1" d="M279.05,351.06a100.56,100.56,0,0,0,1.15,19.13A11.53,11.53,0,1,1,279.09,349l.15,0A16.66,16.66,0,0,0,279.05,351.06Z" transform="translate(-143.54 -189.16)"/><path class="cls-1" d="M255,290.83a11.52,11.52,0,1,1-11.52,11.52A11.52,11.52,0,0,1,255,290.83Z" transform="translate(-143.54 -189.16)"/><path class="cls-1" d="M256.81,390.93a17.56,17.56,0,0,1-14.69,17.32,131.06,131.06,0,0,1-13.5-31.31,17.56,17.56,0,0,1,28.19,14Z" transform="translate(-143.54 -189.16)"/><path class="cls-1" d="M162.45,333.53s-3-18.54,9.19-30.71,30.71-9.2,30.71-9.2,3,18.54-9.19,30.72S162.45,333.53,162.45,333.53Z" transform="translate(-143.54 -189.16)"/><path class="cls-4" d="M543,307.32l-.26,1.18q-12.19,21.17-35.5,25.35h-47v-3.17a13.62,13.62,0,0,0-13.62-13.62H430.36c-7-6.75-7.26-15.49-3.12-25.56a61.19,61.19,0,0,1-4.71-4.43c-4.62-4.84-7.74-9.89-9.27-15.16-3-10.07-.12-20.94,8.93-32.66-7.11-3.07-10.91-10.41-11.81-18.4-1.39-12.42,4.2-26.42,15.2-28.48a15.57,15.57,0,0,1,7.2.53c19.58,5.78,33.95,16.47,45.62,29.73h0a30.18,30.18,0,0,0-9.08,3.92,30.81,30.81,0,1,0,47.4,26c20.59,10.64,36.74,29.06,40.47,53a4.55,4.55,0,0,1-6.49,4.79A48.61,48.61,0,0,0,543,307.32Z" transform="translate(-143.54 -189.16)"/></g><g id="shadows"><path class="cls-5" d="M350.33,247.6l58.91,58.91L400,318.1V329l7.67,5.15h-43c0-16.48-6.94-17.09-34.48-17.09,0-7.73,6.13-12.39,6.13-12.39L355,274.33l.43-11.33Z" transform="translate(-143.54 -189.16)"/><path class="cls-5" d="M460.2,308.5l24.58,24.58H509.5l24.57-13,7.44-13.15c-34.17-4.9-72.17,4.7-72.17,4.7Z" transform="translate(-143.54 -189.16)"/><path class="cls-5" d="M468.41,281.33c27.33,14.83,51.83,5,61.48-20.45L517.65,253C512.87,280,494.17,286,468.41,281.33Z" transform="translate(-143.54 -189.16)"/><path class="cls-6" d="M162.45,333.53c-.74-28.63,13.21-41.22,39.9-39.91Z" transform="translate(-143.54 -189.16)"/><path class="cls-6" d="M622.8,306.26l6.5-5.66,22.65-18c-31.93-5.5-43.09,9.6-44.41,34.45Z" transform="translate(-143.54 -189.16)"/><path class="cls-7" d="M551.74,334c0,25.72,10.4,41.74,39.91,39.91Z" transform="translate(-143.54 -189.16)"/><path class="cls-8" d="M359.67,383.56l-.64,2.23a11.57,11.57,0,0,1-10.56,8.29,17.66,17.66,0,0,0-12.26,5.85,11.44,11.44,0,0,1-12.84,2.57,41.91,41.91,0,0,0-1.63,12c1.23,10.58,5.81,18.73,17.25,21.88Q307.1,434,294.84,408.25C284.25,394.9,279.72,373,277,348.47v24.89a34.89,34.89,0,0,1-34.89,34.89c19.73,27.7,41.83,49.48,69.89,56.3,39,10.77,65.24-.1,76.58-36.14C389.2,403.19,379.72,388.07,359.67,383.56Zm-13.22,40.1a8.7,8.7,0,1,1,8.71-8.71A8.71,8.71,0,0,1,346.45,423.66Z" transform="translate(-143.54 -189.16)"/><g class="cls-9"><path class="cls-10" d="M287.3,248.89c20.48-15.8,43.37-24.1,68.78-24.53A16.93,16.93,0,0,0,372.61,210h0c-40.44-4.84-76.88,6.8-109,36.35l2.76,2.24A16.84,16.84,0,0,0,287.3,248.89Z" transform="translate(-143.54 -189.16)"/><path class="cls-10" d="M283.32,287.08h0a17.55,17.55,0,0,0,23.59-3.51L326.61,259c5.81-8.26,15.46-9.18,20.17-7.1-9.29-8.41-20.16-10.38-33.23-3.36Z" transform="translate(-143.54 -189.16)"/><ellipse class="cls-10" cx="254.95" cy="303.31" rx="22.78" ry="15.13" transform="translate(-264.11 240.58) rotate(-68.56)"/><circle class="cls-10" cx="99.17" cy="150.36" r="7"/></g><g class="cls-11"><path class="cls-10" d="M478.11,221.28a92.87,92.87,0,0,0-38-21.88,15.57,15.57,0,0,0-7.2-.53c-14.89,2.78-19.87,27.45-11,40.45-15.12-10-11.12-42.24,6-45.45a15.57,15.57,0,0,1,7.2.53C453.24,199.76,466.92,209.35,478.11,221.28Z" transform="translate(-143.54 -189.16)"/><path class="cls-10" d="M426.86,287.91C416.5,275,416,261.17,426.47,246.36a5.77,5.77,0,0,0-.6-7.53,17.62,17.62,0,0,1-1.33-1.4C409.55,255.67,411,272.44,426.86,287.91Z" transform="translate(-143.54 -189.16)"/><path class="cls-10" d="M431.74,314.42c-2.47-5.38-2-11.48.7-18.11a3.93,3.93,0,0,0-.81-4.23q-1.58-1.61-3-3.24c-4.58,9.76-4.7,18.44,1.86,25.5Z" transform="translate(-143.54 -189.16)"/></g><ellipse class="cls-12" cx="481.3" cy="240.63" rx="15.25" ry="10.12" transform="translate(-188.49 163.8) rotate(-38.61)"/><circle class="cls-12" cx="322.54" cy="67.54" r="3.69"/></g><g id="lines"><path class="cls-13" d="M628.71,297.66a3.39,3.39,0,0,0-.57.17,3.22,3.22,0,0,0-.51.28,2.79,2.79,0,0,0-.46.37,2.83,2.83,0,0,0-.37.46,3.25,3.25,0,0,0-.28.52,3.7,3.7,0,0,0-.17.56,2.88,2.88,0,0,0-.06.59,3,3,0,0,0,.88,2.12,3.33,3.33,0,0,0,.46.37,2.34,2.34,0,0,0,.52.27,2.15,2.15,0,0,0,.56.17,2.85,2.85,0,0,0,.58.06,3,3,0,1,0-.58-5.94Z" transform="translate(-143.54 -189.16)"/><path class="cls-13" d="M476.09,260.43a3,3,0,0,0,3-3,6.83,6.83,0,0,1,13.65,0,3,3,0,0,0,6,0,12.83,12.83,0,0,0-25.65,0A3,3,0,0,0,476.09,260.43Z" transform="translate(-143.54 -189.16)"/><path class="cls-13" d="M538.74,293.61a3,3,0,1,0,4.5-4l-4.62-5.25a3,3,0,1,0-4.5,4Z" transform="translate(-143.54 -189.16)"/><path class="cls-13" d="M181.72,317.28a3,3,0,1,0,0-6h0a3,3,0,0,0,0,6Z" transform="translate(-143.54 -189.16)"/><path class="cls-13" d="M654.94,282.46a3,3,0,0,0-2.17-2.77c-.8-.23-19.69-5.47-34.27,6-11.87,9.31-13.68,24-13.93,29.63-15,8.52-36,15.56-68.11,15.56H524.79A53.75,53.75,0,0,0,544.7,311a42.81,42.81,0,0,1,4.66,2,7.54,7.54,0,0,0,10.79-7.94c-3.52-22.62-18.24-42.35-40.48-54.39a33.79,33.79,0,0,0-40.21-31.35c-13.11-14.47-28.12-24.08-45.83-29.32a18.35,18.35,0,0,0-8.6-.59c-9.31,1.73-16.22,10.91-17.62,23.37-.12,1.11-.19,2.25-.21,3.4A135.13,135.13,0,0,0,221,330.85H189.81a32.59,32.59,0,0,0,5.47-4.39c13.11-13.11,10.17-32.49,10-33.31a3,3,0,0,0-2.49-2.49c-.82-.13-20.2-3.07-33.31,10-10.13,10.13-10.67,24-10.34,30.16H146.54a3,3,0,1,0,0,6h74.15c0,1.46-.07,2.91-.07,4.38a135.28,135.28,0,0,0,68.6,117.14A97.92,97.92,0,0,0,337.47,471q1.86,0,3.73-.07h.16a50.47,50.47,0,0,0,50.91-50,41,41,0,0,0-40.56-41.39h-.34a33.42,33.42,0,0,0-33.38,33,27.17,27.17,0,0,0,6,17.3,57.61,57.61,0,0,1-18.79-13.15c-15.14-15.68-24-40.82-23.12-65.6a14.88,14.88,0,0,1,15-14.32h39.26a9.35,9.35,0,0,0,15.43,4.48,9.35,9.35,0,0,0,15.43-4.48H432a9.35,9.35,0,0,0,15.43,4.48,9.35,9.35,0,0,0,15.43-4.48h73.57c3.84,0,7.86-.08,12-.29-.35,6.08.11,20.11,10.33,30.32,8.91,8.92,20.73,10.41,27.64,10.41a38.43,38.43,0,0,0,5.67-.37,3,3,0,0,0,2.49-2.49c.13-.82,3.07-20.2-10-33.31a33.69,33.69,0,0,0-11.88-7.62,120.5,120.5,0,0,0,34.72-13A46.26,46.26,0,0,0,618,321.7c6.74,0,15.41-1.46,22.94-7.37C655.57,302.89,655,283.29,654.94,282.46ZM173.77,304.94c8.53-8.53,20.81-8.84,25.84-8.56.28,5,0,17.31-8.56,25.84-6.67,6.67-15.61,8.31-21.61,8.57l8-8a3,3,0,0,0-4.24-4.24l-8,8C165.43,320.58,167.06,311.64,173.77,304.94Zm340-52.42a27.81,27.81,0,1,1-27.81-27.8A27.84,27.84,0,0,1,513.72,252.52Zm-100.35-39c1.33-11.88,7.7-17.2,12.76-18.14a12.47,12.47,0,0,1,5.8.45c15.75,4.66,29.25,13,41.13,25.48a33.69,33.69,0,0,0-4.4,2.2,49.52,49.52,0,0,0-7.58-6.84,1.5,1.5,0,0,0-1.77,2.42,46.66,46.66,0,0,1,6.82,6.08,34,34,0,0,0-2.7,2.17,39.35,39.35,0,0,0-4.22-3.59,1.5,1.5,0,0,0-1.78,2.42,36.47,36.47,0,0,1,3.86,3.26,33.79,33.79,0,1,0,58.07,28c19.16,11.23,31.77,28.73,34.86,48.6a1.53,1.53,0,0,1-.62,1.5,1.48,1.48,0,0,1-1.56.14,50.9,50.9,0,0,0-8.18-3.19,60.55,60.55,0,0,0-13.25-2.31,170.63,170.63,0,0,0-58.29,6.17,6.29,6.29,0,0,1-4-.05,5.67,5.67,0,0,1-3.62-5.16,5.83,5.83,0,0,1,3-5.6,3,3,0,1,0-2.75-5.33,12,12,0,0,0,1.17,21.68,11.34,11.34,0,0,0,4.12.75,13.26,13.26,0,0,0,3.65-.53,164.69,164.69,0,0,1,56.25-6,57.41,57.41,0,0,1,8.52,1.2c-7.61,12-18,19-31.79,21.52H463.2v-.17a16.64,16.64,0,0,0-16.62-16.62H431.64c-4.91-5.36-5.42-12.2-1.63-21.42a3,3,0,0,0-.83-3.43c-17-14.43-18.49-30.17-4.62-48.13a3,3,0,0,0-1.19-4.59C415.09,232.92,412.38,222.35,413.38,213.47ZM420,288.79a10,10,0,1,1-9.53-15.42A40.61,40.61,0,0,0,420,288.79Zm-18.95-67.08A21.61,21.61,0,1,1,360.17,212,127.4,127.4,0,0,1,401,220.2C401,220.7,401.08,221.2,401.08,221.71ZM263.15,251.13a131.17,131.17,0,0,1,16.29-14.23,16.06,16.06,0,1,1-21.87,20.36Q260.26,254.12,263.15,251.13Zm-31.4,125.58a15.9,15.9,0,0,1,7.49-1.85,16.06,16.06,0,0,1,5.18,31.27A129.42,129.42,0,0,1,231.75,376.71Zm141.17,75.5a44.85,44.85,0,0,1-8.16,6.33,11.26,11.26,0,0,1,15.56-15.87A44.68,44.68,0,0,1,372.92,452.21Zm-51.34-16.78a15.68,15.68,0,1,1-24.84-19.14c1.32,1.61,2.68,3.16,4.11,4.64A63.59,63.59,0,0,0,321.58,435.43Zm68.89-104.58h-23v-.17a16.63,16.63,0,0,0-16.3-16.6,21.59,21.59,0,0,1,39.27,16.77Zm66.73,3.63a3.38,3.38,0,0,1-6.75,0v-7a3,3,0,0,0-6,0v7a3.38,3.38,0,0,1-6.75,0v-7a3,3,0,0,0-6,0v3.4H411.9a8.76,8.76,0,0,1-7.08-13.91l7-9.62a3,3,0,0,0-4.85-3.54l-7,9.62a14.69,14.69,0,0,0-1.22,15.38,14.9,14.9,0,0,0,1.28,2.06h-6.48a24.59,24.59,0,0,0-45.78-16.79H332.39l20.85-28.57a29.57,29.57,0,1,0-47.78-34.87l-23.31,31.94A3,3,0,1,0,287,286.1l18.53-25.39a15.74,15.74,0,0,0,26.05-16.11A23.34,23.34,0,0,1,343.24,249,23.6,23.6,0,0,1,348.39,282l-22.14,30.33a4.89,4.89,0,0,0,4,7.78h20.67a10.63,10.63,0,0,1,10.62,10.62v3.8a3.38,3.38,0,1,1-6.75,0v-7a3,3,0,0,0-6,0v7a3.38,3.38,0,1,1-6.75,0v-7a3,3,0,0,0-6,0v3.4H306.62a8.76,8.76,0,0,1-7.08-13.91L327.22,279a3,3,0,0,0-4.85-3.54L294.7,313.4a14.69,14.69,0,0,0-1.22,15.38,14.9,14.9,0,0,0,1.37,2.18,20.85,20.85,0,0,0-18.25,15.94,13,13,0,1,0-1.43,25.95h.39a13,13,0,0,0,2-.23c2.64,15.4,8.63,29.75,17.32,41.26a18.68,18.68,0,0,0,12.95,30.91q.59,0,1.18,0a18.59,18.59,0,0,0,15.49-8.26,59.46,59.46,0,0,0,20.49,3.62h.12A22.44,22.44,0,0,0,367.68,418a18.58,18.58,0,0,0-18.37-18.74,15.53,15.53,0,0,0-11,4.41,15.34,15.34,0,0,0-4.63,10.87,13,13,0,0,0,12.82,13.09h0a3,3,0,0,0,0-6,7,7,0,0,1-6.88-7,9.45,9.45,0,0,1,9.44-9.35h.1a12.57,12.57,0,0,1,12.43,12.68,16.44,16.44,0,0,1-16.44,16.28h-.17A21.3,21.3,0,0,1,324,412.68a27.42,27.42,0,0,1,27.66-27.1,35,35,0,0,1,34.62,35.33A44.3,44.3,0,0,1,381.75,440a14.31,14.31,0,0,0-7.05-2.37A14.25,14.25,0,0,0,362.14,460a44.07,44.07,0,0,1-20.8,4.9H341a92,92,0,0,1-48.79-11.79A129.06,129.06,0,0,1,246,408.74a19.06,19.06,0,1,0-15.08-35,128.23,128.23,0,0,1,24.5-114A19.05,19.05,0,1,0,282.15,235a127.58,127.58,0,0,1,69.94-23c1.6,0,3.2,0,4.8,0a24.6,24.6,0,1,0,47.19,9.75c0-.1,0-.21,0-.31q1.82.74,3.62,1.54c1.14,6.87,4.31,13.41,10.06,17.29q-11.09,15.85-8,30.23A13,13,0,1,0,422.17,291q.74.71,1.51,1.41c-3,8.43-2.84,15.69.57,21.68h-2.06a3,3,0,0,0,0,6h24.39a10.63,10.63,0,0,1,10.62,10.62v3.8Zm-128.87-90a12.74,12.74,0,0,1-21,13.74l3-4.09A23.65,23.65,0,0,1,328.34,244.51ZM277.05,369.67a10,10,0,1,1-.91-19.79c0,.36-.08.71-.09,1.08A106.13,106.13,0,0,0,277.05,369.67ZM588.9,371.2c-5,.29-17.31,0-25.84-8.56C556.39,356,554.75,347,554.48,341l14.38,14.38a3,3,0,0,0,2.12.88h0a3,3,0,0,0,.39,0l.17,0a3,3,0,0,0,1.45-5.16l-14.29-14.29c6,.26,14.94,1.91,21.61,8.58C588.86,353.89,589.18,366.17,588.9,371.2Zm48.39-61.58c-7.2,5.65-16,6.34-22,6,3.14-2.12,6.27-4.44,9.38-7a3,3,0,1,0-3.81-4.63,123,123,0,0,1-9.89,7.38c.9-5.91,3.53-14.92,11.2-20.94,9.49-7.45,21.73-6.28,26.68-5.4C648.58,290,646.82,302.13,637.28,309.61Z" transform="translate(-143.54 -189.16)"/><path class="cls-13" d="M254.95,289.33a13,13,0,1,0,13,13A13,13,0,0,0,254.95,289.33Zm0,23a10,10,0,1,1,10-10A10,10,0,0,1,254.95,312.37Z" transform="translate(-143.54 -189.16)"/><path class="cls-13" d="M379.62,253.18a12.46,12.46,0,1,0,12.46,12.46A12.47,12.47,0,0,0,379.62,253.18Zm0,21.92a9.46,9.46,0,1,1,9.46-9.46A9.47,9.47,0,0,1,379.62,275.09Z" transform="translate(-143.54 -189.16)"/></g></svg>