<svg xmlns="http://www.w3.org/2000/svg" viewBox="0 0 374.25 351.06"><defs><style>.cls-1{fill:#c4e4f5;}.cls-2{fill:#ffde59;}.cls-3{fill:#d8a3a3;}.cls-4{fill:#ff776b;}.cls-5{fill:#d6fff1;}.cls-6{fill:#05e688;}.cls-7{fill:#007362;opacity:0.2;}.cls-12,.cls-13,.cls-15,.cls-8{fill:#fff;}.cls-8{opacity:0.35;}.cls-10,.cls-16,.cls-9{fill:#c78100;}.cls-13,.cls-9{opacity:0.25;}.cls-10,.cls-15{opacity:0.5;}.cls-11{opacity:0.57;}.cls-14{fill:#c22746;opacity:0.22;}.cls-16{opacity:0.3;}.cls-17{fill:#1d4852;}</style></defs><title>dragon-with-the-coin</title><g id="colors"><path class="cls-1" d="M543,148.47c15.42-12.08,31.09,7.92,15.67,20,8.37,4.46.62,16-6.5,9.83-1.18,17.68-23.68,16.18-22.5-1.5l-11.87,5.46-13.13,6c-7.92,3.79-13.42-7.71-5.5-11.5l12.35-6.06,13.15-6.44C507.81,150.55,532.56,130.8,543,148.47Z" transform="translate(-212.87 -124.75)"/><path class="cls-2" d="M532.43,260.2h0a50.8,50.8,0,0,1,6.69,25c.3,23.36-13.68,49.07-37.86,67.81a12.87,12.87,0,0,0-1.61,1.22.08.08,0,0,1,0,0,122.26,122.26,0,0,1-12.19,8c-16.28,9.39-33.5,14.47-49.61,15.44l1-2.35a8.89,8.89,0,0,0-16.24-7.23,9.29,9.29,0,0,0-1.21-9.51c17.59-.07,36.83-5.18,54.91-15.61,3-1.74,5.92-3.58,8.7-5.51q.76.46,1.5,1a6.46,6.46,0,0,0,7.91-.44l.2-.18a6.37,6.37,0,0,0-.06-9.67q.35.25.69.54a7.22,7.22,0,0,0,9.65-.46,7.27,7.27,0,0,0-.25-10.58c.34.27.67.55,1,.83a6,6,0,0,0,8.68-.93,5.88,5.88,0,0,0,1.2-3.57,6.07,6.07,0,0,0-2-4.51l-.11-.1c14.73-21.37,19.06-45.71,9.6-65.3a1.09,1.09,0,0,0,.08-.15Z" transform="translate(-212.87 -124.75)"/><path class="cls-3" d="M507.18,246l-.13.18c-.09.12-.18.24-.28.35Z" transform="translate(-212.87 -124.75)"/><path class="cls-3" d="M501.27,353l-1.61,1.22A12.87,12.87,0,0,1,501.27,353Z" transform="translate(-212.87 -124.75)"/><path class="cls-2" d="M404.57,264c21.11,1.83,44.36-5.86,59.22-21.4,1.31-1.37,2.56-2.8,3.73-4.29,11.34.3,20.73,3.45,27,8.92a24.5,24.5,0,0,1,5.16,6.23c6.36,11,2.26,24.14-.76,31a65.22,65.22,0,0,1-6.1,10.81A97.63,97.63,0,0,0,482,290.48c-24.75-9.23-54.32-9.25-88-1.36-2.68.74-5.25,1.41-7.72,2h0c.48-1.35,1-2.57,1.45-3.64a74.67,74.67,0,0,1,16.78-23.27Z" transform="translate(-212.87 -124.75)"/><path class="cls-3" d="M494.56,328.23c-.26-.22-.53-.43-.8-.63l.64.49A1,1,0,0,1,494.56,328.23Z" transform="translate(-212.87 -124.75)"/><path class="cls-3" d="M493.73,327.58c-.48-.36-1-.72-1.49-1.07C492.74,326.86,493.24,327.21,493.73,327.58Z" transform="translate(-212.87 -124.75)"/><path class="cls-2" d="M523,244.15a55.18,55.18,0,0,1-7.7,11.16,6,6,0,0,1-4.5,2,6.09,6.09,0,0,1-4.75-9.9c.24-.29.47-.59.69-.89a7.25,7.25,0,0,1-10.51.55,6.66,6.66,0,0,1-.52-.55,7.24,7.24,0,0,1-.24-9.12c.3-.39.6-.78.88-1.19a6.61,6.61,0,0,1-5.42,2.8,6.54,6.54,0,0,1-5.5-10.07A60,60,0,0,0,491.71,216l-2.82-.61a63.36,63.36,0,0,1-11,1.46,54.15,54.15,0,0,1-10.32,21.42c11.34.3,20.73,3.45,27,8.92a24.49,24.49,0,0,1,5.16,6.23c6.36,11,2.26,24.14-.76,31a65.23,65.23,0,0,1-6.1,10.81h0a97.89,97.89,0,0,1,20.59,14.21C528.13,288.08,532.46,263.74,523,244.15Z" transform="translate(-212.87 -124.75)"/><path class="cls-2" d="M442,331.65c9.89-1.51,18.85-1.61,26.8-.11a48,48,0,0,1,16.17,6c-2.78,1.93-5.69,3.77-8.7,5.51C458.23,353.5,439,358.61,421.4,358.68a9.26,9.26,0,0,0-15.57,1.65l-.54,1.1a10.56,10.56,0,0,0-9.49-15.16,10.29,10.29,0,0,0-3.49.6C410.72,339.18,427.39,333.87,442,331.65Z" transform="translate(-212.87 -124.75)"/><path class="cls-2" d="M404.57,264l0,.25a74.67,74.67,0,0,0-16.78,23.27c-.47,1.07-1,2.29-1.45,3.64-10.43,2.61-19.08,4.1-26.82,4.15,2.05-12.52,7.87-25.3,16.85-37l2.21-2.59A58.8,58.8,0,0,0,404.57,264Z" transform="translate(-212.87 -124.75)"/><path class="cls-3" d="M392.31,346.87l-1.29.55A8.62,8.62,0,0,1,392.31,346.87Z" transform="translate(-212.87 -124.75)"/><path class="cls-4" d="M423,147.65a6.13,6.13,0,0,1,.57,1.11,94.41,94.41,0,0,0-11.46-.7,163,163,0,0,0-17.49.94c.05-.11.1-.23.16-.34l9.58-18.6a4.27,4.27,0,0,1,7.41-.31Z" transform="translate(-212.87 -124.75)"/><path class="cls-4" d="M386.67,150a7.54,7.54,0,0,1-1.1,9.45,24.45,24.45,0,0,1-21.47,5.83,7.6,7.6,0,0,1-6-8.06,6.7,6.7,0,0,1,.22-1.39l5.22-20.25a4.27,4.27,0,0,1,7.15-2l14.92,15A7.29,7.29,0,0,1,386.67,150Z" transform="translate(-212.87 -124.75)"/><path class="cls-4" d="M250.84,291.36A162.32,162.32,0,0,0,278.68,403c-9.35,6.49-27.8,5.41-40.57-15-29-47.9-28.45-103.86-5.25-133a24.7,24.7,0,0,1,19.37-9.23,25.27,25.27,0,0,1,7.62,1.17c.82.26,1.63.56,2.4.89a25.11,25.11,0,0,1,15.22,22.59,81.4,81.4,0,0,1-5.41,30.93,11,11,0,0,1-21.2-4.11C250.91,295.25,250.9,293.26,250.84,291.36Z" transform="translate(-212.87 -124.75)"/><path class="cls-5" d="M412.08,224.56a25,25,0,0,0,14.7,4h0l-.44,3.22c-3.52,13.58-18.89,9.61-15.37-4Z" transform="translate(-212.87 -124.75)"/><path class="cls-5" d="M450.89,219.11c8.72,13.18-4.35,21.83-13.07,8.64l-.88-1.27h0a29.21,29.21,0,0,0,10.75-7.06,14.13,14.13,0,0,1,2.12-1.83Z" transform="translate(-212.87 -124.75)"/><path class="cls-4" d="M542.52,271.72a32.92,32.92,0,0,0-3.38,13.51h0a50.8,50.8,0,0,0-6.69-25h0a111.17,111.17,0,0,1,8.08-19.66,9.37,9.37,0,0,1,14.67-2.48,153.24,153.24,0,0,1,27.07,33,12.93,12.93,0,0,1-8.49,19.38q-2.71.54-5.53.95c-.05-.41-.1-.82-.16-1.23a47.39,47.39,0,0,0-7.48-19.67,10.46,10.46,0,0,0-8.69-4.63h-.32A10.48,10.48,0,0,0,542.52,271.72Z" transform="translate(-212.87 -124.75)"/><path class="cls-6" d="M569.44,310.43a145.92,145.92,0,0,0-1.21-19c-.05-.41-.1-.82-.16-1.23a47.39,47.39,0,0,0-7.48-19.67,10.46,10.46,0,0,0-8.69-4.63h-.32a10.48,10.48,0,0,0-9.06,5.82,32.92,32.92,0,0,0-3.38,13.51h0c.3,23.36-13.68,49.07-37.86,67.81l-1.61,1.22a.08.08,0,0,1,0,0,122.23,122.23,0,0,1-12.19,8c-16.28,9.39-33.5,14.47-49.61,15.44l1-2.35a8.89,8.89,0,0,0-16.24-7.23,9.29,9.29,0,0,0-1.21-9.51,9.26,9.26,0,0,0-15.57,1.65l-.54,1.1a10.56,10.56,0,0,0-9.49-15.16,10.28,10.28,0,0,0-3.49.6l-1.29.55a8.64,8.64,0,0,1,1.29-.55c18.41-7.69,35.08-13,49.73-15.22,9.89-1.51,18.85-1.61,26.8-.11a48,48,0,0,1,16.17,6q.77.47,1.5,1a6.46,6.46,0,0,0,7.91-.44l.2-.18a6.37,6.37,0,0,0-.06-9.67c-.26-.22-.53-.43-.8-.63l.64.49a1,1,0,0,1,.16.14q.35.25.69.54a7.22,7.22,0,0,0,9.65-.46,7.27,7.27,0,0,0-.25-10.58c.34.27.67.55,1,.83a6,6,0,0,0,8.68-.93,5.88,5.88,0,0,0,1.2-3.57,6.07,6.07,0,0,0-2-4.51l-.11-.1a97.88,97.88,0,0,0-20.59-14.21h0A97.65,97.65,0,0,0,482,290.48c-24.75-9.23-54.32-9.25-88-1.36-2.68.74-5.25,1.41-7.72,2h0c-10.43,2.61-19.08,4.1-26.82,4.15,2.05-12.52,7.87-25.3,16.85-37l2.21-2.59a58.8,58.8,0,0,0,26,8.28c21.11,1.83,44.36-5.86,59.22-21.4,1.31-1.37,2.56-2.8,3.73-4.29a54.15,54.15,0,0,0,10.32-21.42,63.38,63.38,0,0,0,11-1.46l2.82.61A60,60,0,0,1,485.43,229a6.54,6.54,0,0,0,5.5,10.07,6.61,6.61,0,0,0,5.42-2.8c-.28.41-.58.8-.88,1.19a7.24,7.24,0,0,0,.24,9.12,6.7,6.7,0,0,0,.52.55,7.25,7.25,0,0,0,10.51-.55c-.22.3-.45.6-.69.89a6.09,6.09,0,0,0,4.75,9.9,6,6,0,0,0,4.5-2,55.17,55.17,0,0,0,7.7-11.16,1.08,1.08,0,0,0,.08-.15c7.11-13.93,6.65-30.22-9.69-44.65a24,24,0,0,0,4.64-12,20.32,20.32,0,0,0-.21-5.13l-13.13,6c-7.92,3.79-13.42-7.71-5.5-11.5l12.35-6.06a20,20,0,0,0-22.87-3.51c-4.05,2-8,5.52-11.3,10.89-11.42-15.85-31.34-26.61-53.83-29.35h0a94.42,94.42,0,0,0-11.46-.7,163.06,163.06,0,0,0-17.49.94q-4,.42-7.92,1a7.54,7.54,0,0,1-1.1,9.45,24.45,24.45,0,0,1-21.47,5.83,7.6,7.6,0,0,1-6-8.06,162.85,162.85,0,0,0-95.58,90l-.23.64a25.11,25.11,0,0,1,15.22,22.59,81.4,81.4,0,0,1-5.41,30.93,11,11,0,0,1-21.2-4.11c0-2,0-4,0-5.92A162.32,162.32,0,0,0,278.68,403,162.19,162.19,0,0,0,409.74,472.8h2.34c89.67,0,157.37-72.7,157.37-162.38Zm-62.39-64.26c-.09.12-.18.24-.28.35l.41-.53Zm-70.11-19.7a29.21,29.21,0,0,0,10.75-7.06,14.13,14.13,0,0,1,2.12-1.83l1.08,1.53c8.72,13.18-4.35,21.83-13.07,8.64l-.88-1.27Zm-26,1.3,1.11-3.21a25,25,0,0,0,14.7,4h0l-.44,3.22C422.82,245.33,407.45,241.36,411,227.77Z" transform="translate(-212.87 -124.75)"/></g><g id="shadows"><path class="cls-7" d="M300.7,323.12c15.41,42.14,39.53,73.71,75.86,90.31,8.18-12.41,19.16-18.28,33-17.42-21.8-10.24-29.22-25.9-22.6-46.86-20.15,9.26-39.08,12.14-55.81,3.55C316.63,345.55,308.11,334.68,300.7,323.12Z" transform="translate(-212.87 -124.75)"/><path class="cls-8" d="M268.52,306.25C261.65,367.93,296.32,421,336,453.94c-56-32.9-87.25-82-86.1-152.25C254.9,305,262.25,311.48,268.52,306.25Z" transform="translate(-212.87 -124.75)"/><path class="cls-7" d="M477.84,216.88C458.17,271,406.5,271,378.56,255.71c27,8.76,46.72-9,48.22-27.19l10.16-2c3.15,5.73,7.21,9.71,14.81,7,3.15-5.69,2.45-11.19-.87-16.56l10-1.46Z" transform="translate(-212.87 -124.75)"/><path class="cls-8" d="M477.37,178.12l-2.37-2c-17.46-15-27.7-33.68-88.33-26.12l.06,8c30.61-2,56.36,5.49,75.51,25.71a14.17,14.17,0,0,0,19.56.85c7.32-6.4,16.71-11.41,29.74-13.89C500.54,162.49,489.25,162.29,477.37,178.12Z" transform="translate(-212.87 -124.75)"/><path class="cls-9" d="M528,321.61l-12.49-7.55c-.7,1.08-1.36-5.69-2.13-4.61,2.29,7.17-.48,10.07-6.9,9.91,2.24,7.16-1.53,10.72-9.69,11.66-.92,8-5,10-12.41,5.69-3.58,3-23.49,13.37-27.39,15.73a112.44,112.44,0,0,1-37.84,6.5l5.58,5.5c9.59-2.85,14.95.53,13.91,13.33a136.75,136.75,0,0,0,31.75-7.37l.26.35,3.15-1.66,2.25-.93-.12-.22C491.69,359.38,513.72,345.33,528,321.61Z" transform="translate(-212.87 -124.75)"/><path class="cls-10" d="M466.33,239.52c18.63-6.68,31.43,8.5,36.38,22.91l-3.64-13.67-9.76-9.26-4.92-7.14,7-17.55-13.52,2.07C474.15,230.34,471.61,232.36,466.33,239.52Z" transform="translate(-212.87 -124.75)"/><path class="cls-9" d="M398.1,288.16c3-7.18,9.5-15.26,17.4-23.71l-11.84-2-17.33,28.71Z" transform="translate(-212.87 -124.75)"/><g class="cls-11"><path class="cls-12" d="M369.78,293.82a77.27,77.27,0,0,1,15.82-32.75l-8.94-5.35c-9.35,10.8-14.91,23.94-16.37,39.59Z" transform="translate(-212.87 -124.75)"/><polygon class="cls-12" points="237.71 127 237.71 159.08 257.8 161.26 257.8 113.55 237.71 127"/><path class="cls-12" d="M510.82,256.19c3.13,15.18.34,29.89-9.41,44l-8.6-5c10-13.07,11.83-27.54,8.6-42.88Z" transform="translate(-212.87 -124.75)"/><polygon class="cls-12" points="233.37 131.67 233.37 156.35 221.92 157.84 221.92 136.12 233.37 131.67"/></g><path class="cls-13" d="M583.39,274.19v-2.83l-28.21-33.29c-7.17-3.82-12.36-2.86-15.27,3.63l-8,17.62,4.88,10.88c.27-1,.55-1.92.84-2.87l2.61,7.4,11.33-8.82-1.81-11a4.55,4.55,0,0,1,7.21-4.37A198.39,198.39,0,0,1,583.39,274.19Z" transform="translate(-212.87 -124.75)"/><path class="cls-13" d="M276,258.69c3.54,14.95-15.91,20.87-22.15,9.19-2.57-4.81-7.86-7.68-13.17-6.41C229.94,264,220,279.6,218.33,301.13c2.55-30.16,10.58-53,33.9-55.32C261.49,245.74,269.86,248.56,276,258.69Z" transform="translate(-212.87 -124.75)"/><path class="cls-14" d="M240.56,283.53c-11.26,23.09-13,49.42-2.22,80,2.88,8.36,2.3,15.14-2.94,19.8,11.59,20,25.77,27.87,43.29,20.2C256.77,373.45,249,338.42,250,300.28l.58-13.7C248.32,279.79,244.57,280.93,240.56,283.53Z" transform="translate(-212.87 -124.75)"/><path class="cls-8" d="M380.54,450.41l1.41.19a9.4,9.4,0,0,0,10-12.76c-6.81-16.58-.49-38.53,22.74-41C385.5,391.74,358,416.94,380.54,450.41Z" transform="translate(-212.87 -124.75)"/><path class="cls-8" d="M401,364.44c-6.33,17.17,9,32.11,31.55,34.76-34.78-.94-47.29-17.5-48.35-42.09C391.44,339.05,412.32,347.42,401,364.44Z" transform="translate(-212.87 -124.75)"/><polygon class="cls-15" points="205.75 102.8 203.13 115.19 199.25 111.64 198.89 100.74 205.75 102.8"/><polygon class="cls-15" points="224.07 101.73 231.21 97.84 237.71 108.75 232.48 109.57 226.55 105.5 224.07 101.73"/><path class="cls-15" d="M527.94,269.45l11.13,19.19c-.71-10.42-3.87-25.06-9.49-33.37Z" transform="translate(-212.87 -124.75)"/><circle class="cls-15" cx="317.73" cy="28.91" r="8.79"/><circle class="cls-15" cx="338.51" cy="31.76" r="5.44"/><circle class="cls-15" cx="323.94" cy="56" r="7.39"/><path class="cls-7" d="M367.92,246.66h0c-6.15-5.13-9-12.21-10.21-20.23-1.53,6.48-5,11.58-12.23,14.13l-8.17-2.26-6.1-9-4-.73-8.25,6-10.35-3,.62.62,29.34,29.34a21.64,21.64,0,0,1,5.09,22.77q-1.41,3.81-2.64,7.8l18.46,3.18c2.73-15.31,9.58-28.22,19.06-39.59Z" transform="translate(-212.87 -124.75)"/><path class="cls-8" d="M325,289.77a8.79,8.79,0,0,0,.35,14.58q29.91,19.22,68.18,3.7,43.73-18.5,79.73-20.42c-26.72-7-55.79-5.43-86.89,3.51-20.87,6.8-37.85,5-52.48-2.09a8.79,8.79,0,0,0-8.89.71Z" transform="translate(-212.87 -124.75)"/><path class="cls-7" d="M568.07,290.2c-7,50.44-25.25,89.14-66,104l15.6-23.76c3.55-17.53-4.63-19.54-16.37-16.83l-.13-.08a119.43,119.43,0,0,1-35.77,19.06l-10.31,2.8a112.64,112.64,0,0,1-16.4,2.34l-.84,3.39,1.3-.18.49,1.49c13-1,14.85,15,3,17.18a151.28,151.28,0,0,0,19-4.46,13.45,13.45,0,0,1,16.79,16.65c-13.21,45.65-50.72,59-99.36,57.63,43.2,6.53,84.77,2.54,122.73-24.79a149.11,149.11,0,0,0,17.34-14.26l.8-.47.8-1.06C556.84,390.75,574.38,345.23,568.07,290.2Z" transform="translate(-212.87 -124.75)"/><path class="cls-7" d="M486.88,323.45l-1.59-1c-29.36-10.66-73.65-1.35-106.16,30l9.58-3.44c40-18.26,73.1-23.63,96.58-10.69,4.78,3.76,10.23,0,11-4.58C496.27,333.73,493.73,318.94,486.88,323.45Z" transform="translate(-212.87 -124.75)"/><path class="cls-8" d="M566,281.65c-19.58-15.75-20.28,10.79-28.08,24.64l1.95-32.52c5.12-6.72,11.76-8.59,20.68-3.24Z" transform="translate(-212.87 -124.75)"/><polygon class="cls-14" points="184.77 23.31 211.62 23.31 196.71 3 191.7 3 184.77 23.31"/><path class="cls-13" d="M362.15,147.24c-4.46,15.84,16.5,18.56,5.33-13.5C364.65,135.58,362.15,147.24,362.15,147.24Z" transform="translate(-212.87 -124.75)"/><ellipse class="cls-8" cx="338.95" cy="216.88" rx="13.84" ry="4.67" transform="translate(-190.51 340.51) rotate(-70.73)"/><ellipse class="cls-8" cx="320.92" cy="203.56" rx="22.93" ry="6.4" transform="translate(-258.95 177.47) rotate(-47.43)"/><path class="cls-16" d="M397.64,344.69c27.68-15.28,72.45-22.34,84.4-5.14-28,20.86-63.7,20.54-70,15.87C405.83,360.33,397.64,344.69,397.64,344.69Z" transform="translate(-212.87 -124.75)"/><path class="cls-8" d="M359.5,164.41c-50.48,20.55-70.48,57-87.16,92a24.07,24.07,0,0,0-10.68-8.67c25-66.63,96.4-90.49,96.4-90.49Z" transform="translate(-212.87 -124.75)"/><path class="cls-8" d="M506.42,206.84c9.57,6.57,18.31,18.19,19,31.78,7.27-34.88-13.34-39.27-13.34-39.27Z" transform="translate(-212.87 -124.75)"/></g><g id="lines"><path class="cls-17" d="M584.82,269.55a156.67,156.67,0,0,0-27.6-33.68,12.37,12.37,0,0,0-19.37,3.28A111.69,111.69,0,0,0,531.71,253l-5.24-9.07a40.41,40.41,0,0,0,3.94-15.36c.47-10.86-3.95-20.83-13.14-29.66A26,26,0,0,0,521,187.64a23.46,23.46,0,0,0,0-3.56l5.86-2.7a15.49,15.49,0,0,0,3.34,7.52,13.6,13.6,0,0,0,9.62,4.9c.3,0,.6,0,.9,0,5.76,0,11.63-3.67,13.7-11a8.26,8.26,0,0,0,5.34-.46,9.41,9.41,0,0,0,5.52-8.12,8.48,8.48,0,0,0-2-5.92c6.33-6.84,5.79-15.31,1.51-20.77s-12.68-8.11-21-3.23a14.88,14.88,0,0,0-13.7-5.72,16.59,16.59,0,0,0-13.58,11.48c-1.32,4.62-.19,9.33,3.11,13.38L512,167.18a23,23,0,0,0-24.65-2.65,29.29,29.29,0,0,0-10.1,8.51c-11.91-14.36-30.76-24.11-51.76-27.05l-11.2-17.85a7.27,7.27,0,0,0-12.62.53l-9,17.51c-1.56.18-3.12.4-4.68.62-.09-.1-.17-.2-.27-.3l-14.92-15a7.27,7.27,0,0,0-12.18,3.32L355.39,155a165.83,165.83,0,0,0-94.81,89,28.28,28.28,0,0,0-30.42,9.54c-11.79,15.06-17.92,36.82-17.24,61.27.69,25.19,8.73,51.71,22.64,74.7,8.4,13.46,18.35,18,25.22,19.38a29,29,0,0,0,5.85.6A24.93,24.93,0,0,0,277.81,407a167.32,167.32,0,0,0,16.55,19.57A164.38,164.38,0,0,0,409.7,475.8h2.38c89.93,0,160.37-72.64,160.37-165.38,0,0,0,0,0,0a151.43,151.43,0,0,0-.9-16.44c1-.16,1.89-.34,2.81-.52a15.69,15.69,0,0,0,11.41-9.18A16,16,0,0,0,584.82,269.55Zm-53.29,39.7-7.36-12.75c5-11,7.24-22.24,6.72-32.82C537.87,277.26,537.65,293.43,531.53,309.24Zm-45.6,50.49q-4.17,2.41-8.47,4.45l-8.11-14.06c2.85-1.37,5.67-2.85,8.46-4.46,2.5-1.45,4.93-3,7.25-4.52a9.49,9.49,0,0,0,11.35-.82l.2-.17a9.41,9.41,0,0,0,3.19-6.75h0A10.25,10.25,0,0,0,510,323l.5,0a9,9,0,0,0,8-8.9,9,9,0,0,0-1.39-4.79q2.06-3.14,3.82-6.34L528.52,316C520.24,332.68,505.51,348.42,485.93,359.73ZM461,370.53l-8-13.91q5.47-1.72,10.86-4l8.08,14A114.15,114.15,0,0,1,461,370.53Zm-25.32-9.46c-.29-.13-.58-.24-.87-.35a109.29,109.29,0,0,0,12.21-2.4l8,13.83a102.57,102.57,0,0,1-12.71,2.22A12,12,0,0,0,435.72,361.06Zm-26.85-7.68a13.55,13.55,0,0,0-5.43-7.73c13.92-5.31,26.25-8.88,37.1-10.71v6.84a1.5,1.5,0,0,0,3,0v-7.31c9.38-1.34,17.6-1.33,24.75,0a48,48,0,0,1,10.85,3.36q-2.12,1.34-4.32,2.62a117.14,117.14,0,0,1-27.06,11.45l-.24.06a100.19,100.19,0,0,1-24.84,3.67,12,12,0,0,0-3.22-2.27A12.25,12.25,0,0,0,408.87,353.38Zm74.67-65.52V276.8a1.5,1.5,0,0,0-3,0v10c-24.2-8.28-53.43-8.49-87.17-.58l-.11,0-1.78.48a72.86,72.86,0,0,1,14.42-19.56c1.54.1,3.09.16,4.66.16a81.08,81.08,0,0,0,19.52-2.45,77.71,77.71,0,0,0,23.78-10.25v17.45a1.5,1.5,0,0,0,3,0V252.54a68.4,68.4,0,0,0,5.44-4.41v8.28a1.5,1.5,0,0,0,3,0V245.27q1.85-1.89,3.52-3.9c13.36.65,23.62,5.56,28.25,13.58,5.7,9.89,1.88,22-.91,28.27a60.89,60.89,0,0,1-4.39,8.15Q487.76,289.44,483.54,287.85ZM379.2,259.58a60.22,60.22,0,0,0,19.21,6.69,75.06,75.06,0,0,0-13.39,20c-.34.78-.65,1.55-.95,2.3a125.22,125.22,0,0,1-20.91,3.58c2.42-10.85,7.73-21.84,15.51-32Zm101-39.84a66.1,66.1,0,0,0,7.2-.94,56.71,56.71,0,0,1-4.51,8.55,9.51,9.51,0,0,0,0,10.37,53.36,53.36,0,0,0-9.94-2A56.75,56.75,0,0,0,480.21,219.74Zm21.44,65.9c2.71-6.13,6.21-17,3.22-27.5.22.19.44.36.68.53a9.1,9.1,0,0,0,5.25,1.67,9,9,0,0,0,6.76-3.05,62.57,62.57,0,0,0,4.94-6.4c5.39,16.22,1.91,35.83-9.72,54.06a101.2,101.2,0,0,0-15.66-10.8A66.6,66.6,0,0,0,501.65,285.64ZM520.82,242a3,3,0,0,0-.39.56l0,.06,0,.06a3,3,0,0,0-.26.66,54.88,54.88,0,0,1-7.06,10,3.07,3.07,0,0,1-5.31-1.63,3.09,3.09,0,0,1,.66-2.39c.31-.39.6-.77.9-1.16l.16-.2.57-.78,0-.06a54,54,0,0,0,6.06-10.58,3,3,0,0,0-5.52-2.35,48.43,48.43,0,0,1-6,10.27,4.25,4.25,0,0,1-6.72-5.19c.27-.35.54-.72.8-1.09l.15-.18.14-.2c.43-.6.85-1.23,1.26-1.87h0a59.79,59.79,0,0,0,3.94-7.36,3,3,0,1,0-5.46-2.48,50.42,50.42,0,0,1-4.64,8.26l-.19.26a3.64,3.64,0,0,1-2.67,1.46,3.47,3.47,0,0,1-2.82-1.11,3.53,3.53,0,0,1-.41-4.33A62.88,62.88,0,0,0,494.54,217a37,37,0,0,0,8.49-3.85l.1-.07,2-1.41a49.87,49.87,0,0,0,8.57-7.89C520.57,210.72,529.68,224.29,520.82,242ZM526,167a3,3,0,0,0,.58-5c-3.85-3.13-5.34-6.68-4.32-10.25a10.58,10.58,0,0,1,8.58-7.17c3.79-.5,7.19,1.42,9.56,5.38a15.21,15.21,0,0,1,1.45,4.37,3,3,0,0,0,2.93,2.36,3.05,3.05,0,0,0,.65-.07,3,3,0,0,0,2.29-3.57,26.45,26.45,0,0,0-.95-3.48c5.61-3.33,10.61-1.7,13.29,1.72,3,3.8,3.14,9.87-3.22,14.85a3,3,0,0,0,.44,5c1.4.75,2.09,1.72,2,2.89a3.39,3.39,0,0,1-1.92,2.85c-1,.44-2.11.16-3.26-.83a3,3,0,0,0-4.95,2.08,11.16,11.16,0,0,1-3.21,7.7,7.66,7.66,0,0,1-5.73,2c-4.11-.27-8-3.72-7.57-10.82a3,3,0,0,0-4.25-2.92l-25,11.52a3.38,3.38,0,1,1-2.91-6.09h0ZM407,131.44a1.27,1.27,0,0,1,2.21-.1l8.72,13.9c-1.94-.12-3.88-.18-5.84-.18-4.11,0-8.23.16-12.34.46Zm-40.58,4.93a1.23,1.23,0,0,1,.89-.91,1.35,1.35,0,0,1,.35,0,1.21,1.21,0,0,1,.88.38l14.92,15a4.75,4.75,0,0,1,.6.73l0,.06a4.8,4.8,0,0,1,.77,2.65,4.34,4.34,0,0,1-1.34,3.12c-4.71,4.47-11.92,6.41-18.83,5.06a4.43,4.43,0,0,1-2.91-2,4.78,4.78,0,0,1-.58-3.73ZM262,403.08c-5.72-1.18-14.06-5-21.32-16.65-13.36-22.08-21.09-47.55-21.75-71.72-.64-23.06,5-43.45,16-57.41a22.16,22.16,0,0,1,39.58,13.21,78.68,78.68,0,0,1-5.21,29.79,8,8,0,0,1-15.39-3c.09-3.5,0-7.09-.26-11a8.66,8.66,0,0,0-6.82-7.83A11,11,0,0,0,236,282.27c-11.49,12.66-9.43,52.75-3,73.71a3,3,0,1,0,5.74-1.75c-8-26.13-5.69-59.75,1.73-67.92a5.05,5.05,0,0,1,5.11-1.88,2.62,2.62,0,0,1,2.05,2.33,151.9,151.9,0,0,1-.5,15.32c-.21,2.91-.4,5.65-.4,8.36A164.33,164.33,0,0,0,274.33,402,20.56,20.56,0,0,1,262,403.08Zm150.09,66.72h-2.3a158.41,158.41,0,0,1-111.15-47.43,161.09,161.09,0,0,1-17.38-20.86c0-.06-.06-.12-.1-.18s-.09-.11-.14-.16a158.34,158.34,0,0,1-28.3-90.73c0-.77,0-1.55.05-2.34a14,14,0,0,0,22.1-5.63,84.62,84.62,0,0,0,5.61-32.06,28.06,28.06,0,0,0-14.37-24,159.82,159.82,0,0,1,89.54-85.1,10.7,10.7,0,0,0,1,2.21,10.37,10.37,0,0,0,6.83,4.71,29.43,29.43,0,0,0,5.66.55,26.7,26.7,0,0,0,18.47-7.15,10.29,10.29,0,0,0,3.2-7.39,10.66,10.66,0,0,0-.14-1.79,161.51,161.51,0,0,1,21.37-1.43c26,0,50,11,62.86,28.81a3,3,0,0,0,2.43,1.25h.1a3,3,0,0,0,2.45-1.41c2.86-4.6,6.25-7.9,10.09-9.79a17,17,0,0,1,15.76.33l-7.88,3.86a9.17,9.17,0,0,0-4.59,12.58A9.21,9.21,0,0,0,505.94,191l9.11-4.19c0,.1,0,.2,0,.3a22,22,0,0,1-5.32,12.07,43.73,43.73,0,0,1-8.08,7.59l-1.91,1.34c-7.56,4.81-24.5,7.69-35.93,4.34a18.41,18.41,0,0,0-15.64,2.6l-.1.06-.11.1a17.55,17.55,0,0,0-2.43,2.11,27.62,27.62,0,0,1-22.43,8,19.39,19.39,0,0,1-15-9.28,3,3,0,0,0-5.16,3.05,24.53,24.53,0,0,0,5.57,6.51l-.39,1.14c0,.07,0,.15-.07.22a15,15,0,0,0,.63,10.32,10.2,10.2,0,0,0,6.57,5.51,9.64,9.64,0,0,0,2.42.31c4.68,0,9.66-3.35,11.55-10.66a3.14,3.14,0,0,0,.07-.35l.11-.8a33.85,33.85,0,0,0,6.35-1.29c3.66,5.2,7.94,7.27,11.65,7.27a9.27,9.27,0,0,0,5.13-1.51c4.15-2.75,6.25-9.22,1.57-17.19a12.33,12.33,0,0,1,8-.39,46.59,46.59,0,0,0,11.79,1.66C468,238.67,451,253.49,428.62,259c-23,5.71-45.95.08-58.43-14.34a3,3,0,0,0-4.54,3.93,49.42,49.42,0,0,0,8.44,7.69l0,0-.1.13c-8.67,11.3-14.51,23.63-17,35.81a44.82,44.82,0,0,1-14.89-3,3,3,0,0,0-2.15,5.6,52.59,52.59,0,0,0,19.42,3.37h.12l.19,0c8.46-.08,17.44-1.75,27.37-4.22,2.72-.68,5.25-1.35,7.73-2,38.9-9.1,71.41-7.13,96.64,5.88l0,0,0,0a95.16,95.16,0,0,1,20,13.83,3.09,3.09,0,0,1,1,2.28,3,3,0,0,1-2.64,2.93,3,3,0,0,1-2.29-.71c-.42-.36-.84-.7-1.26-1l-.15-.13-.76-.59-.05,0A53.72,53.72,0,0,0,495,308.08a3,3,0,0,0-2.52,5.45,48.22,48.22,0,0,1,10,6.32,4.25,4.25,0,0,1-5.35,6.6l-.7-.55-.2-.18-.35-.25c-.44-.33-.89-.66-1.35-1l-.57-.41-.12-.09-.07,0a60,60,0,0,0-7.17-4.14,3,3,0,1,0-2.66,5.38,53.83,53.83,0,0,1,6.61,3.82l.48.35c.41.29.81.58,1.2.88l.45.35a3.26,3.26,0,0,1,1.11,2.37,3.45,3.45,0,0,1-1.18,2.71l-.2.17a3.5,3.5,0,0,1-4.26.2c-.48-.32-1-.62-1.46-.92l-.23-.15a51.1,51.1,0,0,0-17.09-6.36c-19-3.6-44.62,1.48-78.18,15.48l-.37.12c-.28.11-.55.24-.82.37q-3.42,1.44-7,3c-22.78,10.07-52.44,16.21-79.85-26.09a3,3,0,1,0-5,3.26c10.78,16.64,27.29,36,54.89,36,8.62,0,18.32-1.9,29.26-6.34-3.57,12.65,1.45,27,13,36.42a44.9,44.9,0,0,0,4.33,2.93,36.92,36.92,0,0,0-25.14,17.12c-7.65,12.82-6.31,28.27,3.58,41.34a3,3,0,1,0,4.78-3.62c-8.36-11-9.57-24-3.21-34.64,6.62-11.1,19.45-16.65,33.49-14.49a77.58,77.58,0,0,0,20.94,2.73q2.42,0,4.9-.13c16.24-.85,32.86-5.85,45.58-13.73a3,3,0,0,0-3.16-5.1c-18,11.18-45.62,16.39-66.67,10.49a3,3,0,0,0-.34-.1,45.59,45.59,0,0,1-15.35-7.5c-10.24-8.33-14.42-21.17-10.39-31.94a7.46,7.46,0,0,1,3.56-4l1.16-.48a7.45,7.45,0,0,1,5.77.42,7.57,7.57,0,0,1,3.38,10.08l-1.68,3.4a3,3,0,0,0,5.38,2.65l.37-.75h0l1.88-3.8A6.26,6.26,0,0,1,419.84,367l-.1.22L418.47,370h0L417.6,372a3,3,0,0,0,5.47,2.47l2.15-4.74.1-.22h0l0-.06a5.89,5.89,0,0,1,7.85-2.92,5.93,5.93,0,0,1,2.91,7.71L434.89,377a6.32,6.32,0,0,0,3.1,8.22,3,3,0,0,0,3.51-4.71A109.33,109.33,0,0,0,460.35,377l.07,0a123.3,123.3,0,0,0,28.51-12,125.29,125.29,0,0,0,12.33-8.12l.08,0,.19-.14a9.17,9.17,0,0,1,10.89-.07,8.82,8.82,0,0,1,3.47,9.87c-2.39,8.3-7.79,17-16,25.76a3,3,0,1,0,4.38,4.11c8.91-9.49,14.77-19,17.43-28.21a14.84,14.84,0,0,0-5.79-16.44,15.55,15.55,0,0,0-5.42-2.44,104.89,104.89,0,0,0,23.84-31.46,3,3,0,0,0,.53-1.12,73.3,73.3,0,0,0,7.26-31,3,3,0,0,0,0-.34A29.65,29.65,0,0,1,545.21,273a7.46,7.46,0,0,1,12.88-.85,44.52,44.52,0,0,1,7,18.42,143.41,143.41,0,0,1,1.35,19.81s0,0,0,0C566.43,399.82,498.63,469.81,412.08,469.81Zm37.13-247.67c2.29,4.2,1.84,7.49,0,8.68s-4.82.39-7.73-3.11A31.88,31.88,0,0,0,449.21,222.13Zm-35.43,6.81a27.86,27.86,0,0,0,8.64,2.39l.9.08a8.84,8.84,0,0,1-3.08,4.9,4.16,4.16,0,0,1-3.46.73C414.53,236.47,412.7,233.69,413.78,228.95Zm166.5,52.88a9.77,9.77,0,0,1-7.1,5.71c-.8.16-1.61.31-2.44.45a50.55,50.55,0,0,0-7.65-19.12,13.45,13.45,0,0,0-23.16,1.35,51.81,51.81,0,0,0-4.24-10.33,107.21,107.21,0,0,1,7.48-17.95,6.29,6.29,0,0,1,4.54-3.3,6.36,6.36,0,0,1,5.43,1.62,150.61,150.61,0,0,1,26.54,32.39A9.85,9.85,0,0,1,580.28,281.82Z" transform="translate(-212.87 -124.75)"/><path class="cls-17" d="M398.74,202.13A3,3,0,0,0,401.5,198c-2.4-5.65.6-9.91,4.64-11.63a9.26,9.26,0,0,1,6.5-.37,8.64,8.64,0,0,1,5.09,5.09,3,3,0,0,0,5.52-2.35,14.39,14.39,0,0,0-8.68-8.42,15.12,15.12,0,0,0-10.78.53c-6.78,2.88-11.63,10.5-7.81,19.5A3,3,0,0,0,398.74,202.13Z" transform="translate(-212.87 -124.75)"/><path class="cls-17" d="M330.59,261.13a2.5,2.5,0,0,0-2.71,2.27c-.33,3.67-1.86,6.25-4.2,7.1a4.36,4.36,0,0,1-4.58-1c-1.64-1.66-1.85-4.54-.59-7.9a2.5,2.5,0,1,0-4.68-1.75c-2,5.27-1.34,10.06,1.72,13.17a9.3,9.3,0,0,0,6.62,2.74,9.47,9.47,0,0,0,3.2-.56c4.26-1.53,7-5.67,7.49-11.36A2.5,2.5,0,0,0,330.59,261.13Z" transform="translate(-212.87 -124.75)"/><path class="cls-17" d="M542.24,349.34c-4.63.49-8.37,4-10.28,9.54a2.5,2.5,0,0,0,4.73,1.62c1.25-3.65,3.46-5.91,6.07-6.18a4.64,4.64,0,0,1,4.46,2.17c1.26,2.11.77,5.1-1.35,8.21a2.5,2.5,0,0,0,4.13,2.81c3.26-4.79,3.81-9.75,1.51-13.59A9.64,9.64,0,0,0,542.24,349.34Z" transform="translate(-212.87 -124.75)"/><path class="cls-17" d="M352.58,342.65a13.47,13.47,0,0,0,7.86,2.79,10.58,10.58,0,0,0,5.47-1.52,10.89,10.89,0,0,0,5.31-10.56,9.51,9.51,0,0,0-3.33-6.06,8.65,8.65,0,0,0,3.19-7.41c-.34-4.39-4-8.56-10.35-8.09a2.5,2.5,0,1,0,.38,5c3.47-.28,4.85,1.71,5,3.48s-.94,3.93-4.4,4.2a2.5,2.5,0,0,0-.49,4.9c3,.84,4.78,2.49,5.06,4.64a5.91,5.91,0,0,1-2.91,5.62c-2.27,1.35-5.06,1-7.84-1a2.5,2.5,0,1,0-2.93,4.05Z" transform="translate(-212.87 -124.75)"/><path class="cls-17" d="M284.87,326.1a2.5,2.5,0,0,0-2.35,2.64,4.58,4.58,0,0,1-1.76,4.33,3.75,3.75,0,0,1-3.69.21,4.58,4.58,0,0,1-2.24-4.1,2.5,2.5,0,1,0-5,.29,9.48,9.48,0,0,0,5,8.28,8.72,8.72,0,0,0,8.68-.5,9.48,9.48,0,0,0,4-8.79A2.49,2.49,0,0,0,284.87,326.1Z" transform="translate(-212.87 -124.75)"/><path class="cls-17" d="M400.65,308.33c2.75-1.18,5.15-1.14,6.42.09a2.81,2.81,0,0,1,.64,3c-.68,1.73-2.89,2.81-5.92,2.89a2.5,2.5,0,0,0,.06,5h.06c5.11-.13,9-2.4,10.45-6.07a7.79,7.79,0,0,0-1.82-8.46c-1.33-1.29-5.15-4-11.87-1.09a2.5,2.5,0,1,0,2,4.6Z" transform="translate(-212.87 -124.75)"/><path class="cls-17" d="M548.83,314.35c-1.7.73-5.64,3.23-5.57,10.54a2.5,2.5,0,0,0,2.5,2.47h0a2.5,2.5,0,0,0,2.47-2.53c0-3,.92-5.19,2.55-5.89a2.8,2.8,0,0,1,3.06.58c1.34,1.29,1.49,3.75.39,6.57a2.5,2.5,0,1,0,4.66,1.8c1.84-4.77,1.25-9.25-1.59-12A7.8,7.8,0,0,0,548.83,314.35Z" transform="translate(-212.87 -124.75)"/><path class="cls-17" d="M307.45,382.88a8.26,8.26,0,0,0,6.83-3.59c1.12-1.63,3.25-6.13-1-12.72a2.5,2.5,0,1,0-4.2,2.71c1.82,2.83,2.23,5.51,1.08,7.19a3.29,3.29,0,0,1-3.4,1.34c-2.08-.43-3.72-2.68-4.38-6a2.5,2.5,0,0,0-4.91,1c1.06,5.39,4.15,9.11,8.27,10A8.51,8.51,0,0,0,307.45,382.88Z" transform="translate(-212.87 -124.75)"/><path class="cls-17" d="M330.74,389.91a2.5,2.5,0,0,0-3.41,3.66c2,1.85,2.87,3.77,2.39,5.15a2.48,2.48,0,0,1-2.26,1.55c-1.7.13-3.47-1.12-4.71-3.34l-.19-.35a2.5,2.5,0,0,0-4.41,2.35l.2.37c1.93,3.71,2,7.13.08,9.42a5.94,5.94,0,0,1-6.31,1.95c-2.71-.86-4.44-3.8-4.76-8.08a2.5,2.5,0,1,0-5,.37c.47,6.42,3.47,11,8.23,12.48a10.46,10.46,0,0,0,3.17.49,11.11,11.11,0,0,0,11.06-11,8.4,8.4,0,0,0,3,.32,7.5,7.5,0,0,0,6.63-4.87C335,398.8,335.76,394.6,330.74,389.91Z" transform="translate(-212.87 -124.75)"/><path class="cls-17" d="M463.47,421c-4.48-3.48-10.68-3.34-17,.38l-.1.06a23.18,23.18,0,0,0-6.2,5.59,2.5,2.5,0,0,0,4,3,18.24,18.24,0,0,1,4.84-4.32c4.47-2.6,8.62-2.86,11.38-.71a7.39,7.39,0,0,1,2.46,7.84c-1,3.52-4.47,5.87-9.51,6.49l-.48.05a2.5,2.5,0,0,0,.56,5l.46-.05c3.14-.29,5.65.64,6.77,2.53a3.32,3.32,0,0,1,0,3.68c-1.12,1.55-3.67,2-7,1.29a2.5,2.5,0,1,0-1.08,4.88,18.14,18.14,0,0,0,3.91.46c4.91,0,7.31-2.45,8.21-3.69a8.35,8.35,0,0,0,.28-9.16,9.5,9.5,0,0,0-2.64-2.88,12.73,12.73,0,0,0,5.34-7.18A12.43,12.43,0,0,0,463.47,421Z" transform="translate(-212.87 -124.75)"/><path class="cls-17" d="M307.16,234.12a16.9,16.9,0,0,0,9.22,2.74,16.59,16.59,0,0,0,11.88-4.92c2.73,7.22,8.74,11,14.27,11.4q.66.05,1.3.05c9.23,0,15.06-8,16.79-16.35a3,3,0,1,0-5.87-1.22c-1.18,5.66-5,12.08-11.75,11.54-6.64-.53-10-7.18-10.23-13.14a3,3,0,0,0-5.63-1.29c-.62,1.14-1.18,2.11-1.73,3a10.57,10.57,0,0,1-9,5,10.92,10.92,0,0,1-6-1.77,10.69,10.69,0,0,1-4.65-11.45c5-20.49,25.85-29.88,37.83-33.66a3,3,0,1,0-1.8-5.72c-22.75,7.18-37.62,20.66-41.85,38A16.69,16.69,0,0,0,307.16,234.12Z" transform="translate(-212.87 -124.75)"/><path class="cls-17" d="M463.81,259.93h0a1.5,1.5,0,1,0,1.51,1.5A1.5,1.5,0,0,0,463.8,259.93Z" transform="translate(-212.87 -124.75)"/><path class="cls-17" d="M544.22,137.36a3,3,0,0,0,0-6h0a3,3,0,0,0,0,6Z" transform="translate(-212.87 -124.75)"/><path class="cls-17" d="M575.69,168.32a3,3,0,0,0,0-6h0a3,3,0,0,0,0,6Z" transform="translate(-212.87 -124.75)"/><path class="cls-17" d="M575.69,152a2,2,0,0,0,0-4h0a2,2,0,0,0,0,4Z" transform="translate(-212.87 -124.75)"/><path class="cls-17" d="M556.83,188.83a2,2,0,1,0,2,2,2,2,0,0,0-2-2Z" transform="translate(-212.87 -124.75)"/></g></svg>