<svg xmlns="http://www.w3.org/2000/svg" viewBox="0 0 457.33 392"><defs><style>.cls-1{fill:#3bd466;}.cls-2{fill:#00ace0;}.cls-3{fill:#dbf6ff;}.cls-4{fill:#e6e6ae;}.cls-5{fill:#b3f2ff;}.cls-10,.cls-12,.cls-6{fill:#fff;}.cls-6{opacity:0.4;}.cls-7{fill:#002042;}.cls-7,.cls-9{opacity:0.2;}.cls-11,.cls-13,.cls-8,.cls-9{fill:#1c0300;}.cls-8{opacity:0.1;}.cls-10{opacity:0.3;}.cls-11{opacity:0.15;}.cls-12{opacity:0.5;}.cls-13{opacity:0.07;}.cls-14{fill:#1e4378;}</style></defs><title>sloth</title><g id="colors"><path class="cls-1" d="M585.72,172.65c7.69,7.69,7,21.33,7,21.33s-13.63.7-21.32-7-7-21.32-7-21.32S578,165,585.72,172.65Z" transform="translate(-171.34 -113.88)"/><path class="cls-2" d="M496.33,194V309.88h-46V194a23,23,0,1,1,46,0Z" transform="translate(-171.34 -113.88)"/><path class="cls-3" d="M388.17,322c-.92,16.56-3.78,30-8.34,40.91a91.52,91.52,0,0,1-16.83-53h25.5Q388.5,316.21,388.17,322Z" transform="translate(-171.34 -113.88)"/><path class="cls-2" d="M372.67,194V309.88H363a77.91,77.91,0,0,0-36.33-65.94V194a23,23,0,0,1,46,0Z" transform="translate(-171.34 -113.88)"/><path class="cls-4" d="M342.56,309.88a57.42,57.42,0,0,1-4.08,21.32c-7.12-19-18.29-28.32-30-34.36a34,34,0,0,0-4.56-1.85,12.41,12.41,0,0,1,1.42-23.82,12.56,12.56,0,0,1,3.41-.21c10.4.52,20.7,5.81,27.77,13.29A57.13,57.13,0,0,1,342.56,309.88Z" transform="translate(-171.34 -113.88)"/><path class="cls-3" d="M285,252.32a57.53,57.53,0,0,1,51.54,31.93c-7.07-7.48-17.37-12.77-27.77-13.29a12.15,12.15,0,0,0-13.06,11A12.42,12.42,0,0,0,303.94,295a34,34,0,0,1,4.56,1.85c11.69,6,22.86,15.32,30,34.36a57.58,57.58,0,0,1-107,0c7.12-19,18.29-28.32,30-34.36a34,34,0,0,1,4.56-1.85,12.41,12.41,0,0,0-1.42-23.82,12.56,12.56,0,0,0-3.41-.21c-10.4.52-20.7,5.81-27.77,13.29A57.53,57.53,0,0,1,285,252.32Z" transform="translate(-171.34 -113.88)"/><path class="cls-1" d="M285,194s.7,13.64-7,21.33-21.33,7-21.33,7-.69-13.63,7-21.32S285,194,285,194Z" transform="translate(-171.34 -113.88)"/><path class="cls-4" d="M274.29,281.92A12.42,12.42,0,0,1,266.06,295a34,34,0,0,0-4.56,1.85c-11.69,6-22.86,15.32-30,34.36a57.65,57.65,0,0,1,1.94-46.95c7.07-7.48,17.37-12.77,27.77-13.29a12.15,12.15,0,0,1,13.06,11Z" transform="translate(-171.34 -113.88)"/><path class="cls-1" d="M219.62,163.75c10.9,10.9,9.91,30.23,9.91,30.23s-19.32,1-30.22-9.91-9.91-30.23-9.91-30.23S208.72,152.85,219.62,163.75Z" transform="translate(-171.34 -113.88)"/><path class="cls-3" d="M491.62,358.44A119.48,119.48,0,0,0,481.55,398a92.2,92.2,0,0,1-65.65-4.81h0a144.88,144.88,0,0,0,11.48-28.78,199.64,199.64,0,0,0,7.13-54.51H547A84.55,84.55,0,0,0,521.39,322,89.29,89.29,0,0,0,491.62,358.44Z" transform="translate(-171.34 -113.88)"/><path class="cls-5" d="M547,309.88H496.33V194a23,23,0,1,0-46,0V309.88H434.5V194a23,23,0,0,0-46,0V309.88H372.67V194a23,23,0,0,0-46,0v49.94A78,78,0,0,0,207,309.88c0-106.59,86.41-193,193-193a192.4,192.4,0,0,1,138.1,58.18,16.34,16.34,0,0,0-11.56-4.8A16.22,16.22,0,0,0,512.18,194h0C531.15,230.55,547,268,547,309.88ZM278,215.35c7.69-7.69,7-21.33,7-21.33s-13.63-.7-21.32,7-7,21.32-7,21.32S270.3,223,278,215.35Z" transform="translate(-171.34 -113.88)"/><path class="cls-2" d="M338.48,331.2A57.58,57.58,0,1,0,285,367.44,57.42,57.42,0,0,0,338.48,331.2ZM512.18,194a16.23,16.23,0,0,1,25.92-18.93l.13.13A192.37,192.37,0,0,1,593,309.88c0,106.59-86.41,193-193,193s-193-86.41-193-193a78,78,0,1,1,156,0,91.52,91.52,0,0,0,16.83,53c4.56-11,7.42-24.35,8.34-40.91q.33-5.79.33-12.12V194a23,23,0,0,1,46,0V309.88a199.64,199.64,0,0,1-7.13,54.51,144.88,144.88,0,0,1-11.48,28.78h0A92.2,92.2,0,0,0,481.55,398a119.48,119.48,0,0,1,10.07-39.54A89.29,89.29,0,0,1,521.39,322,84.55,84.55,0,0,1,547,309.88C547,268,531.15,230.55,512.17,194Z" transform="translate(-171.34 -113.88)"/></g><g id="shadows"><path class="cls-6" d="M189.4,153.84c24.57.42,40.28,10.42,38.88,38.88Z" transform="translate(-171.34 -113.88)"/><path class="cls-6" d="M285,194q-28.49-.17-28.32,28.32Z" transform="translate(-171.34 -113.88)"/><path class="cls-7" d="M564.39,165.66c17.48.66,28.95,7.88,28.32,28.32Z" transform="translate(-171.34 -113.88)"/><path class="cls-8" d="M385.85,342.49a102.17,102.17,0,0,1-6.1,19.52A98.87,98.87,0,0,1,363,309.88,93.35,93.35,0,0,0,385.85,342.49Z" transform="translate(-171.34 -113.88)"/><path class="cls-8" d="M491.62,358.44,481.55,398c-24.7,5.92-46.79,3.45-65-4.81a217.5,217.5,0,0,0,11.06-29.91C445.48,366.82,466.78,365.83,491.62,358.44Z" transform="translate(-171.34 -113.88)"/><path class="cls-9" d="M327.67,199.68c0,35.33,46,35.33,46,0C373.67,222.41,327.67,222.41,327.67,199.68Z" transform="translate(-171.34 -113.88)"/><path class="cls-10" d="M551.44,323.73c-20.31,3.25-40.2,11.1-58.84,32.53,10.09-20.7,27.48-36.65,54.4-46.38-.33-42-14.92-80.11-35.33-116.55-3-5.78-.85-11.69,2.76-17.63,3.38-7.12,17.19-6.82,23.8-.51a23.21,23.21,0,0,0-10.41,1.4,8.38,8.38,0,0,0-3.29,12.56c23.26,32.69,39.8,69.66,42.22,115.63A18.2,18.2,0,0,1,551.44,323.73Z" transform="translate(-171.34 -113.88)"/><path class="cls-11" d="M334.14,279.93l29.16,29.16c2.87,28.75,5,31.05,16.53,53.82-7.58,17.6-21.08,31.16-41.06,40.27L329,407c-61.43-8-92.7-42.63-101.56-97.12C235.75,401.88,374.42,376,334.14,279.93Z" transform="translate(-171.34 -113.88)"/><path class="cls-12" d="M326.67,270.18c-27.64-9.57-45.49-11.21-63-1.29-7.77,1-19.67,5.79-26.81,9.7C256,249.52,299.85,243.74,326.67,270.18Z" transform="translate(-171.34 -113.88)"/><path class="cls-10" d="M236.88,278.59a59.07,59.07,0,0,0-9.44,31.29A55.3,55.3,0,0,1,236.88,278.59Z" transform="translate(-171.34 -113.88)"/><path class="cls-10" d="M261.23,271c-.67.06-1.33.12-2,.21a62,62,0,0,0-22.35,7.42h0a59.07,59.07,0,0,0-9.44,31.29c12-17.41,27.46-27.76,46.92-30C271.88,274.11,267.61,271,261.23,271Z" transform="translate(-171.34 -113.88)"/><path class="cls-10" d="M295.64,279.93c19.46,2.19,34.92,12.54,46.92,29.95a55.35,55.35,0,0,0-9.44-31.29A61.4,61.4,0,0,0,308.77,271C302.39,271,298.11,274.11,295.64,279.93Z" transform="translate(-171.34 -113.88)"/><path class="cls-11" d="M389.69,501.82l1.54.35q-5.62-.06-11.4-.33C383.21,501.9,386.49,501.9,389.69,501.82Z" transform="translate(-171.34 -113.88)"/><rect class="cls-12" x="270.41" y="204.87" width="51.27" height="17.2" rx="8.6" ry="8.6"/><path class="cls-10" d="M207,322c15.21-57.08,48.49-91.43,119.67-78.06C256.5,208.18,205.5,260,207,322Z" transform="translate(-171.34 -113.88)"/><path class="cls-11" d="M400.62,502.11l-6,.77c-1.15-.22-2.29-.46-3.4-.71C394.39,502.21,397.53,502.19,400.62,502.11Z" transform="translate(-171.34 -113.88)"/><path class="cls-8" d="M583.18,248.95c3.21,23.55,4.15,45.94,1.54,66.51-3.25,25.62-18,48.62-40.35,61.47-25,14.35-49.68,10.8-51.78-20.67-6.82,15.6-10.46,29.49-11,41.72-22.65,6.36-44.14,3.26-65-4.81-15.77,26.69-36.08,45-61.77,53.48l-9.54,3L329,453c34.64,37.5,161.75,48.82,227.55-30.23,15.41-22,25.75-44.81,31.37-68.45h0C597.46,319.16,592.33,284,583.18,248.95Z" transform="translate(-171.34 -113.88)"/><path class="cls-8" d="M242.25,344.75c18.5,20.25,84.42,14.8,81.49-37.09,9.76,12.79,13.51,22.09,13.51,22.09C325.75,353.75,289.75,394,242.25,344.75Z" transform="translate(-171.34 -113.88)"/><path class="cls-10" d="M400.83,316V200.08a23,23,0,0,1,23-23,22.44,22.44,0,0,1,5.09.58,23,23,0,0,0-39.09,16.42V310c0,55.74-19.07,79.85-49.73,93.3C375.76,403.54,400.83,371.7,400.83,316Z" transform="translate(-171.34 -113.88)"/><path class="cls-10" d="M367.84,183a23,23,0,0,0-32,32,23,23,0,1,1,32-32Z" transform="translate(-171.34 -113.88)"/><path class="cls-10" d="M492.84,183a23,23,0,0,0-32,32,23,23,0,1,1,32-32Z" transform="translate(-171.34 -113.88)"/><path class="cls-9" d="M451.67,199.94c0,35.33,46,35.33,46,0C497.67,222.67,451.67,222.67,451.67,199.94Z" transform="translate(-171.34 -113.88)"/><path class="cls-13" d="M450.33,290.42c0,10.33,46,10.83,46-47.92v67.38h-46Z" transform="translate(-171.34 -113.88)"/><path class="cls-13" d="M372.33,242.5v67.38H362.4l-4.51-23.79C365.92,278.1,372.33,264.43,372.33,242.5Z" transform="translate(-171.34 -113.88)"/></g><g id="lines"><path class="cls-14" d="M344.44,446.76A135.49,135.49,0,0,1,328.57,450a3,3,0,1,0,.86,5.94A141.34,141.34,0,0,0,346,452.56a3,3,0,0,0-1.57-5.79Z" transform="translate(-171.34 -113.88)"/><path class="cls-14" d="M341,333a3,3,0,0,0,.49-1.23,60.39,60.39,0,0,0-2.07-48.46,3,3,0,0,0-.35-.68,60.52,60.52,0,0,0-108.09,0,3,3,0,0,0-.35.68,60.39,60.39,0,0,0-2.07,48.46A3,3,0,0,0,229,333,60.55,60.55,0,0,0,341,333ZM334,286a54.38,54.38,0,0,1,4,36.59c-4.64-9.42-12.65-20.36-28.18-28.41a38,38,0,0,0-4.94-2A9.41,9.41,0,0,1,306,274.1a9.93,9.93,0,0,1,2.61-.14C317.74,274.41,327.2,278.9,334,286Zm-72.66-12a9.78,9.78,0,0,1,2.61.14,9.41,9.41,0,0,1,1.08,18.06,38,38,0,0,0-4.95,2A61.52,61.52,0,0,0,232,322.63,54.38,54.38,0,0,1,236,286C242.8,278.9,252.26,274.41,261.38,274ZM285,364.44a54.64,54.64,0,0,1-50.25-33.3c7.4-18.93,18.89-26.86,28.13-31.64a32.31,32.31,0,0,1,4.17-1.68,15.38,15.38,0,0,0,10.22-16.22A15.15,15.15,0,0,0,261.08,268a42,42,0,0,0-15,3.75,54.44,54.44,0,0,1,77.88,0,42,42,0,0,0-15-3.75,15.15,15.15,0,0,0-16.19,13.63,15.38,15.38,0,0,0,10.22,16.22,32.31,32.31,0,0,1,4.17,1.68c9.24,4.78,20.73,12.71,28.13,31.64A54.64,54.64,0,0,1,285,364.44Z" transform="translate(-171.34 -113.88)"/><path class="cls-14" d="M311.05,309.46A43.55,43.55,0,0,1,288,317.9v-8.2c6.29-.74,11-3.74,11-7.34,0-4.15-6.27-7.52-14-7.52s-14,3.37-14,7.52c0,3.6,4.71,6.61,11,7.34v8.2a43.55,43.55,0,0,1-23.05-8.44,3,3,0,1,0-3.56,4.83,50,50,0,0,0,59.22,0,3,3,0,1,0-3.56-4.83Z" transform="translate(-171.34 -113.88)"/><circle class="cls-14" cx="79.49" cy="173.29" r="5.67"/><circle class="cls-14" cx="147.82" cy="173.29" r="5.67"/><path class="cls-14" d="M204.63,166.46a2.34,2.34,0,0,0-.19-.35,1.76,1.76,0,0,0-.25-.3,2.06,2.06,0,0,0-2.83,0,2.54,2.54,0,0,0-.25.3,2.37,2.37,0,0,0-.18.35,1.62,1.62,0,0,0-.11.37,1.76,1.76,0,0,0,0,.39,2,2,0,0,0,.58,1.42,2.17,2.17,0,0,0,.65.43,2,2,0,0,0,.77.15,2,2,0,0,0,2-2,1.76,1.76,0,0,0,0-.39A2.32,2.32,0,0,0,204.63,166.46Z" transform="translate(-171.34 -113.88)"/><path class="cls-14" d="M603,191h-7.33c-.26-4.85-1.6-14.22-7.83-20.45-8.54-8.53-23-7.9-23.6-7.87a3,3,0,0,0-2.84,2.84c0,.61-.67,15.06,7.87,23.6a21.2,21.2,0,0,0,2.18,1.88H555.71a197.58,197.58,0,0,0-14.89-17.29,3,3,0,0,0-.44-.59c-.46-.47-.93-.9-1.42-1.31A195.72,195.72,0,0,0,244.29,191H232.53c-.2-6.24-1.71-20.27-10.79-29.35-11.71-11.71-31.67-10.83-32.5-10.79a3,3,0,0,0-2.84,2.84c0,.84-.92,20.79,10.79,32.5a30.59,30.59,0,0,0,6.29,4.79H184.33a3,3,0,0,0,0,6h42.38l1.46,0c.63,0,1.09,0,1.33,0h10.37a195.73,195.73,0,0,0-23.34,181.84v0c.66,3.63-.62,8.26-2.9,10.54a3,3,0,1,0,4.24,4.24,14.68,14.68,0,0,0,2.54-3.51c1.22,5.92.94,11.13-.89,15.8a3,3,0,1,0,5.59,2.18,29.73,29.73,0,0,0,1.72-6.5c33,62,98.21,104.29,173.17,104.29a194.92,194.92,0,0,0,75.85-15.28l.2,0c8.75-2.74,16.75-2.75,24.45,0a3,3,0,1,0,2-5.66,41.33,41.33,0,0,0-10-2.21C554,449.57,596,384.54,596,309.88A194.92,194.92,0,0,0,560.13,197H603a3,3,0,0,0,0-6ZM192.41,156.85c5.49.21,17.62,1.55,25.09,9,6.28,6.28,8.22,15.89,8.8,22L210.6,172.21a2,2,0,0,0-2.83,2.83l15.72,15.72c-6.15-.58-15.76-2.51-22.06-8.81C194,174.5,192.63,162.35,192.41,156.85Zm207.59-37a189.21,189.21,0,0,1,125.42,47.41A19.21,19.21,0,0,0,507.88,191h-8.73a26,26,0,0,0-51.64,0H437.32a26,26,0,0,0-51.64,0H375.49a26,26,0,0,0-51.64,0H251.92A189.72,189.72,0,0,1,400,119.88ZM519,320h-9.86a2,2,0,0,0,0,4h4.69a91.38,91.38,0,0,0-19.9,23.53c-1.7,2.86-3.26,5.84-4.69,8.91h-9.42a2,2,0,0,0,0,4h7.65a123.87,123.87,0,0,0-8.7,35.21A89.07,89.07,0,0,1,420,391.72a148.89,148.89,0,0,0,9.92-25.33h8.57a2,2,0,0,0,0-4h-7.45a202.42,202.42,0,0,0,6.41-49.51h93.42A86.13,86.13,0,0,0,519,320ZM453.33,210.59a26.21,26.21,0,0,0,5.5,5v10.31a3,3,0,0,0,6,0v-7.31a25.78,25.78,0,0,0,5.5,1.26v10.06a3,3,0,0,0,6,0V219.82a25.78,25.78,0,0,0,5.5-1.26v7.31a3,3,0,0,0,6,0V215.57a26.21,26.21,0,0,0,5.5-5v96.29h-40Zm34.5-2.86V200.5a3,3,0,0,0-6,0v11.58a19.81,19.81,0,0,1-5.5,1.67V200.5a3,3,0,0,0-6,0v13.25a19.81,19.81,0,0,1-5.5-1.67V200.5a3,3,0,0,0-6,0v7.23a20,20,0,1,1,29,0Zm-40.5,99.15H437.5V197h9.83Zm52,0V197h11c17.17,33.24,32.88,69.51,33.63,109.9ZM379,356.25a88.24,88.24,0,0,1-13-43.37h19.42c0,2.44-.11,4.81-.22,7.12H378.5a2,2,0,0,0,0,4H385A128.19,128.19,0,0,1,379,356.25Zm6.45-49.37h-9.83V197h9.83ZM361.17,197.5a3,3,0,0,0-3,3v11.58a19.81,19.81,0,0,1-5.5,1.67V200.5a3,3,0,1,0-6,0v13.25a19.81,19.81,0,0,1-5.5-1.67V200.5a3,3,0,1,0-6,0v7.23a20,20,0,1,1,29,0V200.5A3,3,0,0,0,361.17,197.5Zm-26,18.07v10.31a3,3,0,0,0,6,0v-7.31a25.78,25.78,0,0,0,5.5,1.26v10.06a3,3,0,0,0,6,0V219.82a25.78,25.78,0,0,0,5.5-1.26v7.31a3,3,0,0,0,6,0V215.57a26.21,26.21,0,0,0,5.5-5v96.29h-3.75a81,81,0,0,0-36.25-64.53V210.59A26.21,26.21,0,0,0,335.17,215.57Zm-56.42-18.14-6.83,6.83a2,2,0,1,0,2.83,2.83l6.84-6.84c-.61,4.08-2.09,9.36-5.72,13-4.65,4.65-12.08,5.79-16.15,6.05.26-4.07,1.39-11.47,6.06-16.14C269.39,199.53,274.66,198,278.75,197.43ZM247.28,197h16.47a21.28,21.28,0,0,0-2.21,1.91c-8.54,8.54-7.9,23-7.87,23.6a3,3,0,0,0,2.84,2.84c.09,0,.47,0,1.09,0,3.62,0,15.22-.6,22.51-7.89,6.24-6.24,7.58-15.65,7.83-20.49h35.72v41.74a80.42,80.42,0,0,0-22.45-8.21,44.21,44.21,0,0,0,4.51-2.84,3,3,0,1,0-3.5-4.87,31.39,31.39,0,0,1-13.14,5.74,32.77,32.77,0,0,0,8.3-11.08,3,3,0,1,0-5.44-2.52,26.46,26.46,0,0,1-17.39,14.65A81.16,81.16,0,0,0,214,270.88,189.2,189.2,0,0,1,247.28,197ZM400,499.88c-104.77,0-190-85.23-190-190a75,75,0,0,1,150,0h0a94.32,94.32,0,0,0,16.38,53.29c-9.2,21.09-24.11,30.81-38.82,37.26a3,3,0,1,0,2.41,5.49c36.12-15.84,51.53-44.57,51.53-96V194a20,20,0,0,1,40,0V309.88c0,67.35-28.34,116.17-77.76,133.95a3,3,0,1,0,2,5.65,113.17,113.17,0,0,0,32.4-18,3,3,0,0,0,.54-.35,19.66,19.66,0,0,1,15.55-4.49,3,3,0,1,0,.67-6,29.76,29.76,0,0,0-4.9-.15c.61-.65,1.22-1.31,1.82-2a2.93,2.93,0,0,0,.26-.22c4.52-4.57,9.16-6.77,14.58-6.93a3,3,0,0,0-.18-6,25.5,25.5,0,0,0-4.91.62q2.93-4.32,5.54-9A94,94,0,0,0,455,404.88,95,95,0,0,0,478.25,402a161.87,161.87,0,0,0,.21,21.69,3,3,0,0,0,3,2.77h.23a3,3,0,0,0,2.77-3.22c-2.1-27.87,3-53,14.66-72.63,11.25-18.9,28.09-32,48.71-37.83l.17-.07.26-.1.27-.14.21-.13a3,3,0,0,0,.25-.21l.17-.15a3,3,0,0,0,.23-.28l.12-.15a3,3,0,0,0,.26-.48l0-.09a3,3,0,0,0,.14-.44c0-.06,0-.12,0-.18a3,3,0,0,0,0-.39s0,0,0-.06c0-43.44-16.82-81.91-35-117l-.07-.15v0a13.22,13.22,0,0,1,20-16.45A189.39,189.39,0,0,1,590,309.88C590,414.64,504.77,499.88,400,499.88ZM567.46,168.71c4.07.26,11.47,1.39,16.14,6.06,3.61,3.61,5.1,8.88,5.71,13L580,178.4a2,2,0,0,0-2.83,2.83l9.36,9.36c-4.08-.61-9.36-2.09-13-5.72C568.86,180.22,567.72,172.79,567.46,168.71Z" transform="translate(-171.34 -113.88)"/><path class="cls-14" d="M625.67,191H613a3,3,0,0,0,0,6h12.67a3,3,0,0,0,0-6Z" transform="translate(-171.34 -113.88)"/><path class="cls-14" d="M174.35,191h0a3,3,0,1,0,3,3A3,3,0,0,0,174.34,191Z" transform="translate(-171.34 -113.88)"/><path class="cls-14" d="M329,404a3,3,0,1,0,3,3,3,3,0,0,0-3-3Z" transform="translate(-171.34 -113.88)"/><path class="cls-14" d="M461.83,324H479a2,2,0,0,0,0-4H461.83a2,2,0,0,0,0,4Z" transform="translate(-171.34 -113.88)"/><path class="cls-14" d="M488.17,337.75H472a2,2,0,0,0,0,4h16.17a2,2,0,0,0,0-4Z" transform="translate(-171.34 -113.88)"/><path class="cls-14" d="M447.52,364.39a2,2,0,0,0-2-2h0a2,2,0,1,0,2,2Z" transform="translate(-171.34 -113.88)"/><path class="cls-14" d="M466,377.25H448.72a2,2,0,1,0,0,4H466a2,2,0,0,0,0-4Z" transform="translate(-171.34 -113.88)"/><path class="cls-14" d="M453.75,333.5a2,2,0,0,0-2-2h-10a2,2,0,0,0,0,4h10A2,2,0,0,0,453.75,333.5Z" transform="translate(-171.34 -113.88)"/><path class="cls-14" d="M502.89,320h0a2,2,0,1,0,2,2A2,2,0,0,0,502.88,320Z" transform="translate(-171.34 -113.88)"/><path class="cls-14" d="M483,430.56h0a3,3,0,1,0,3,3A3,3,0,0,0,483,430.56Z" transform="translate(-171.34 -113.88)"/></g></svg>