<svg xmlns="http://www.w3.org/2000/svg" viewBox="0 0 477.86 435.73"><defs><style>.cls-1{fill:#ff4760;}.cls-2{fill:#fffcd9;}.cls-3{fill:#9cbde5;}.cls-4{fill:#f2f7ff;}.cls-5{fill:#ffb94d;}.cls-6{fill:#ffd47d;}.cls-7{fill:#94504a;}.cls-8{fill:#bf5f56;}.cls-9{fill:#00bfff;}.cls-10{fill:#00a5f7;}.cls-11,.cls-12,.cls-23,.cls-26,.cls-27,.cls-28{fill:#fff;}.cls-11,.cls-17,.cls-18{opacity:0.3;}.cls-12,.cls-16,.cls-19{opacity:0.2;}.cls-13,.cls-14{fill:#f08400;}.cls-13{opacity:0.42;}.cls-14{opacity:0.4;}.cls-15,.cls-16,.cls-18,.cls-25{fill:#0047ff;}.cls-15,.cls-22,.cls-23{opacity:0.25;}.cls-17,.cls-20,.cls-21,.cls-22{fill:#a32141;}.cls-19{fill:#4c3131;}.cls-20{opacity:0.23;}.cls-21{opacity:0.22;}.cls-24{fill:#946a6a;}.cls-24,.cls-25{opacity:0.15;}.cls-26{opacity:0.75;}.cls-27{opacity:0.5;}.cls-29{fill:#a6d2ff;}.cls-30{fill:#2a3d6b;}</style></defs><title>superdino</title><g id="colors"><path class="cls-1" d="M483.52,476.23a150.59,150.59,0,0,1-98.61,21.58l6.5-26.57h0a43.37,43.37,0,0,0,7.88.67c22.55-.39,36.54-18.32,35.27-34.19C436.87,463.89,459.14,488.46,483.52,476.23Z" transform="translate(-220.52 -71.95)"/><path class="cls-2" d="M434.09,160.29c15.2,9,20.17,23.37,15.92,48.64h0c.87-14.24-5.3-21.23-11.34-25.25A32.33,32.33,0,0,0,423,178.81h0a36.4,36.4,0,0,0,6.25-16.14A3.22,3.22,0,0,1,434.09,160.29Z" transform="translate(-220.52 -71.95)"/><path class="cls-3" d="M421.35,251c-.62.3-1.25.58-1.91.85C420.07,251.54,420.71,251.26,421.35,251Z" transform="translate(-220.52 -71.95)"/><path class="cls-4" d="M410.78,220.69a32.08,32.08,0,0,0-10.66,6.79,38.44,38.44,0,0,0-3.18,3.39,7.66,7.66,0,0,0,1.84,11.31,7.74,7.74,0,0,0,4.21,1.23,7.55,7.55,0,0,0,6.81-4.15c.31-.62.63-1.22,1-1.81a32.64,32.64,0,0,1,5.8-7.36c6.6-6.26,15.18-9.15,22.06-8C430,218.39,420,217.15,410.78,220.69Z" transform="translate(-220.52 -71.95)"/><path class="cls-2" d="M394.91,292.35c4.75-1.94,11-1.47,15.75,0-3.14,3.63-6.07,7.37-8.86,11.14l-.88-.65c-7.76-5.29-11.25-12.68-12.88-21l-.14-.27q.93-.5,1.89-1a48.09,48.09,0,0,1,13.31-4.15A37.49,37.49,0,0,1,394.91,292.35Z" transform="translate(-220.52 -71.95)"/><path class="cls-2" d="M406.07,346.46c-.66-1.09-1.3-2.21-1.91-3.34a2,2,0,0,0-3.35-.26,20.9,20.9,0,0,0-3,5.87A62.87,62.87,0,0,1,390.54,338a29.4,29.4,0,0,0-7.08,17.91,50.88,50.88,0,0,0,13.66,1.77,35.42,35.42,0,0,0,14.52-3.38A63.15,63.15,0,0,1,406.07,346.46Z" transform="translate(-220.52 -71.95)"/><path class="cls-5" d="M374,475.05a6.22,6.22,0,1,1-6.22,6.22A6.22,6.22,0,0,1,374,475.05Z" transform="translate(-220.52 -71.95)"/><path class="cls-5" d="M377.19,496.64l-.63,3a6.22,6.22,0,0,1-12.21-2.42l.66-3.33Q371,495.53,377.19,496.64Z" transform="translate(-220.52 -71.95)"/><path class="cls-6" d="M289.31,267.84c6.2,6.91,15.07,11.29,25.14,10.44a17.54,17.54,0,1,1-25.14-10.44Z" transform="translate(-220.52 -71.95)"/><path class="cls-1" d="M317.26,436.45c-3.11-2.22-6.19-4.63-9.2-7.18a27.36,27.36,0,0,0,6.74-14.43,16.88,16.88,0,0,0-6.93-16.68,82.1,82.1,0,0,1-25.24-105.81,17.54,17.54,0,0,1,6.68-24.51,36.39,36.39,0,0,1-6.77-11A157.85,157.85,0,0,0,235,320.6q-.62,1.52-1.2,3.06a155.09,155.09,0,0,0-8.09,29.75c-.46,2.68-.84,5.37-1.15,8.1a158.08,158.08,0,0,0-1,18.18c0,.74,0,1.48,0,2.22a156.63,156.63,0,0,0,27.91,87.32,35.48,35.48,0,0,0,33.76,15.18l.22,0a142.72,142.72,0,0,0,14.89,11.36,23.15,23.15,0,0,0,35.1-13.18A21.77,21.77,0,0,0,336,480c.12-.8.22-1.61.31-2.43C338,461.45,330.42,445.87,317.26,436.45Z" transform="translate(-220.52 -71.95)"/><path class="cls-6" d="M391.41,471.24l-6.5,26.57q-3.9-.48-7.72-1.17Q371,495.53,365,493.92q-4.28-1.14-8.45-2.53h0l7.07-28.88C371.46,466.67,379.93,469.27,391.41,471.24Zm-11.21,10a6.23,6.23,0,1,0-6.23,6.22A6.22,6.22,0,0,0,380.2,481.27Z" transform="translate(-220.52 -71.95)"/><path class="cls-7" d="M508.22,308.09c0,.16,0,.33,0,.49a62.34,62.34,0,0,1-3,19.18h0a14.07,14.07,0,0,1-8.54,2.86,14.23,14.23,0,1,1,11.54-22.53Z" transform="translate(-220.52 -71.95)"/><path class="cls-7" d="M481.48,347.36a21.46,21.46,0,0,1-3,14.45,59.16,59.16,0,0,1-6.27,3.39,61.59,61.59,0,0,1-19.42,5.49,21.5,21.5,0,0,1-6.28-36.75,3.12,3.12,0,0,1,2.61-.65l1.85.38a2.47,2.47,0,0,0,2.93-1.91,3,3,0,0,1,2.39-2.39,21.49,21.49,0,0,1,25.18,18Z" transform="translate(-220.52 -71.95)"/><path class="cls-7" d="M470.46,267a9.19,9.19,0,1,1-9.19,9.19A9.19,9.19,0,0,1,470.46,267Z" transform="translate(-220.52 -71.95)"/><path class="cls-7" d="M459.51,304.72a8.15,8.15,0,1,1-8.14,8.15A8.15,8.15,0,0,1,459.51,304.72Z" transform="translate(-220.52 -71.95)"/><path class="cls-7" d="M434.66,254.15a5.09,5.09,0,1,1-5.09,5.09A5.08,5.08,0,0,1,434.66,254.15Z" transform="translate(-220.52 -71.95)"/><path class="cls-7" d="M419.29,327.12a20.74,20.74,0,0,1-13.21,19.33h0c-.66-1.09-1.3-2.21-1.91-3.34a2,2,0,0,0-3.35-.26,20.91,20.91,0,0,0-3,5.87A62.88,62.88,0,0,1,390.54,338a61.85,61.85,0,0,1-4.77-11.61c4.58-6.5,9.07-13.28,13.89-20A20.74,20.74,0,0,1,419.29,327.12Z" transform="translate(-220.52 -71.95)"/><path class="cls-8" d="M411.64,354.29a63.15,63.15,0,0,1-5.57-7.83h0a20.74,20.74,0,0,0-6.42-40c.7-1,1.41-1.95,2.14-2.92,2.79-3.77,5.72-7.51,8.86-11.14-4.76-1.47-11-1.94-15.75,0a37.49,37.49,0,0,0,8.19-15.87,48.09,48.09,0,0,0-13.31,4.15,62.7,62.7,0,0,1,29.65-28.79c.66-.27,1.29-.55,1.91-.85a62.74,62.74,0,0,1,44.84-1.5,6.37,6.37,0,1,0,11.53,5.38,62.8,62.8,0,0,1,20.59,19.91c-15.54,6.65-7.37,25.74,8.17,19.09a61.72,61.72,0,0,1,1.74,14.22,14.23,14.23,0,1,0-3,19.67,62.55,62.55,0,0,1-26.73,34.05,21.49,21.49,0,0,0-22.19-32.44,3,3,0,0,0-2.39,2.39,2.47,2.47,0,0,1-2.93,1.91l-1.85-.38a3.12,3.12,0,0,0-2.61.65,21.5,21.5,0,0,0,6.28,36.75,61.33,61.33,0,0,1-7.08.4h0C431.44,371.09,420.08,364.39,411.64,354.29Zm68-78.12a9.2,9.2,0,1,0-9.2,9.19A9.19,9.19,0,0,0,479.66,276.17Zm-12,36.7a8.15,8.15,0,1,0-8.15,8.14A8.15,8.15,0,0,0,467.66,312.87Zm-27.92-53.63a5.09,5.09,0,1,0-5.08,5.09A5.08,5.08,0,0,0,439.74,259.24Z" transform="translate(-220.52 -71.95)"/><path class="cls-9" d="M383.45,355.9h0A29.4,29.4,0,0,1,390.54,338a61.85,61.85,0,0,1-4.77-11.61c-16.39,23.27-34.07,43.05-73.17,43.05a25.69,25.69,0,0,1,0-51.37c43.89,0,53.46-24.87,75.3-36.47a29.87,29.87,0,0,1-11.24-9.16c-4.09,7.08-12.5,5.33-16.29-.75,5.79,27.5-35.38,30.49-31.21,1.75a35.22,35.22,0,0,1-14.71,4.86,17.54,17.54,0,0,1-31.82,14.06,82.1,82.1,0,0,0,25.24,105.81,16.88,16.88,0,0,1,6.93,16.68,27.36,27.36,0,0,1-6.74,14.43c3,2.55,6.09,5,9.2,7.18,13.16,9.42,20.73,25,19,41.08-.09.82-.19,1.63-.31,2.43a21.77,21.77,0,0,1-.54,2.6l.09,0a148.21,148.21,0,0,0,21,8.81h0l7.07-28.88c-1.72-.92-3.41-1.9-5.09-3a71,71,0,0,1-20.22-19.08c-11.88-17.09-11.36-32.87-8.49-42,5.51-17.57,30-27.32,63.69-19.83h0C386.32,372.17,383.14,364,383.45,355.9Z" transform="translate(-220.52 -71.95)"/><path class="cls-9" d="M400.92,302.84l.88.65c-.73,1-1.44,1.94-2.14,2.92-4.82,6.69-9.31,13.47-13.89,20-16.39,23.27-34.07,43.05-73.17,43.05a25.69,25.69,0,0,1,0-51.37c43.89,0,53.46-24.87,75.3-36.47l.14.27C389.67,290.16,393.16,297.55,400.92,302.84Z" transform="translate(-220.52 -71.95)"/><path class="cls-9" d="M472.22,365.2h0c0,34.93-28.12,49.29-59.57,49.94,14.38,3.52,21.14,12.64,21.93,22.57,1.08,13.54-9,28.59-25.93,32.95a40.43,40.43,0,0,1-9.34,1.24,43.37,43.37,0,0,1-7.88-.67h0a108.65,108.65,0,0,1-18-4.46,69.48,69.48,0,0,1-9.79-4.28c-1.72-.92-3.41-1.9-5.09-3a71,71,0,0,1-20.22-19.08c-11.88-17.09-11.36-32.87-8.49-42,5.51-17.57,30-27.32,63.69-19.83h0c-7.21-6.4-10.39-14.62-10.08-22.67h0a50.88,50.88,0,0,0,13.66,1.77,35.42,35.42,0,0,0,14.52-3.38c8.44,10.1,19.8,16.8,34.07,16.8h0a62.45,62.45,0,0,0,26.5-5.89Z" transform="translate(-220.52 -71.95)"/><path class="cls-9" d="M596,286.72C557.5,331,561.63,368.4,537.45,416.85c-2.31,4.64-4.89,9.39-7.79,14.26a151.26,151.26,0,0,1-46.14,45.12c-24.38,12.23-46.65-12.34-48.94-38.51-.79-9.93-7.55-19.05-21.93-22.57,31.45-.65,59.57-15,59.57-49.94h0a59.16,59.16,0,0,0,6.27-3.39,62.42,62.42,0,0,0,11.43-9l1.8-1.8c37.44-37.29,66.11-60.87,99.26-71.77A4.67,4.67,0,0,1,596,286.72Z" transform="translate(-220.52 -71.95)"/><path class="cls-9" d="M450,208.93a55,55,0,0,1-1.11,8.07,82.39,82.39,0,0,1-2.2,8.27,72.42,72.42,0,0,0-8-3.18c-8.67-3.7-18.65-4.94-27.86-1.4a32.08,32.08,0,0,0-10.66,6.79,38.44,38.44,0,0,0-3.18,3.39,7.66,7.66,0,0,0,1.84,11.31,7.74,7.74,0,0,0,4.21,1.23,7.55,7.55,0,0,0,6.81-4.15c.31-.62.63-1.22,1-1.81a32.64,32.64,0,0,1,5.8-7.36c6.6-6.26,15.18-9.15,22.06-8,.74,11.88-3.58,22.47-17.29,28.9-.64.27-1.28.55-1.91.85a62.7,62.7,0,0,0-29.65,28.79q-1,.47-1.89,1a29.87,29.87,0,0,1-11.24-9.16c-4.09,7.08-12.5,5.33-16.29-.75,5.79,27.5-35.38,30.49-31.21,1.75a35.22,35.22,0,0,1-14.71,4.86h0c-10.07.85-18.94-3.53-25.14-10.44a36.39,36.39,0,0,1-6.77-11c-4-10.08-3.41-21.9,4-31.23h0c-15.52,0-21.6-9.64-21.62-19.59a24.33,24.33,0,0,1,7.71-17.61,23.42,23.42,0,0,1,2.41-2A131.68,131.68,0,0,1,302.3,170.6a94.55,94.55,0,0,1,36.81-7.84l-1,.59c-5.5,6.27-4.41,15-1.28,19.09,2.6,3.45,10.11,7.8,17.9,4.07-7,8.63-10.51,17.79-9.68,27.59,2.59,10.42,8.26,18.43,21.89,20.21,15.12-1.91,25-8.38,22.8-25.4-4.58-10-3.89-16.77,0-21.56a72.9,72.9,0,0,1,13.88-6A52.54,52.54,0,0,1,423,178.81a32.33,32.33,0,0,1,15.68,4.87C444.7,187.7,450.87,194.69,450,208.93Z" transform="translate(-220.52 -71.95)"/><circle class="cls-10" cx="107.04" cy="179.89" r="13.06"/><circle class="cls-10" cx="120.09" cy="212.26" r="9.47"/><circle class="cls-10" cx="101.76" cy="156.27" r="6.09"/><circle class="cls-10" cx="139.47" cy="181.04" r="4.94"/><circle class="cls-10" cx="92.07" cy="282.34" r="9.05"/><circle class="cls-10" cx="118.51" cy="266.04" r="6.09"/><circle class="cls-10" cx="113.57" cy="282.34" r="4.94"/><circle class="cls-10" cx="139.45" cy="270.11" r="3.35"/><circle class="cls-10" cx="253.71" cy="377.84" r="18.42"/><path class="cls-10" d="M537.45,416.85c-2.31,4.64-4.89,9.39-7.79,14.26a150.67,150.67,0,0,1-18.57,23,22.83,22.83,0,0,1,26.36-37.25Z" transform="translate(-220.52 -71.95)"/><circle class="cls-10" cx="245.8" cy="345.56" r="9.08"/><circle class="cls-10" cx="273.87" cy="345.56" r="5.93"/><circle class="cls-10" cx="263.07" cy="328.77" r="3.35"/><circle class="cls-10" cx="174.75" cy="359.03" r="9.05"/><path class="cls-10" d="M410,463.76a18.22,18.22,0,0,1-1.35,6.91,40.43,40.43,0,0,1-9.34,1.24,43.37,43.37,0,0,1-7.88-.67h0a108.65,108.65,0,0,1-18-4.46,17.68,17.68,0,0,1-.25-3,18.42,18.42,0,1,1,36.83,0Z" transform="translate(-220.52 -71.95)"/><circle class="cls-10" cx="196.4" cy="374.17" r="6.09"/><circle class="cls-10" cx="147.22" cy="372.9" r="4.94"/><path class="cls-2" d="M354.78,186.51c-7.79,3.74-15.3-.61-17.91-4.07-3.13-4.14-4.22-12.82,1.28-19.09l6.71-4.14a45.07,45.07,0,0,0,18.92-17.93l4.63.3c.72,8.77,1.13,17.09,0,23a43.35,43.35,0,0,0,19.72-12.76l4.11.73c.41,10.45-1.65,20.15-7.35,28.76a46,46,0,0,0-17.26-11A30.71,30.71,0,0,1,354.78,186.51Z" transform="translate(-220.52 -71.95)"/><path class="cls-1" d="M389.83,187.35c-3.93,4.79-4.62,11.57,0,21.56,2.22,17-7.68,23.49-22.8,25.4-13.63-1.78-19.3-9.79-21.89-20.21-.84-9.8,2.64-19,9.68-27.59,5.58-4.27,10.3-9.28,12.83-16.18C376.46,173.76,384.18,178.93,389.83,187.35Z" transform="translate(-220.52 -71.95)"/><path class="cls-9" d="M367.61,170.33a30.66,30.66,0,0,1-12.83,16.18C360.37,182.24,365.09,177.23,367.61,170.33Z" transform="translate(-220.52 -71.95)"/><path class="cls-4" d="M378.89,211.05a11,11,0,1,1-21.43-3.45h20.88A10.89,10.89,0,0,1,378.89,211.05Z" transform="translate(-220.52 -71.95)"/></g><g id="shadows"><path class="cls-11" d="M291.77,220.3c-17.28,16.28-39.95-15.89-16.78-34A107.5,107.5,0,0,1,337,163a13.49,13.49,0,0,0-3.3,11.62c-20.56,2.08-33.78,8.74-49.4,20C269.49,205,275.11,224.76,291.77,220.3Z" transform="translate(-220.52 -71.95)"/><ellipse class="cls-11" cx="299.75" cy="237.61" rx="13.75" ry="11.11" transform="translate(-300.74 209.6) rotate(-45)"/><path class="cls-12" d="M443.31,292.19c-11.08,7.09-24.69,5.58-30.42-3.36s-1.39-21.94,9.68-29a28.6,28.6,0,0,1,8-3.55,5.09,5.09,0,1,0,7.39-.9c6.27.17,11.88,2.84,15.06,7.81C458.72,272.11,454.38,285.1,443.31,292.19Z" transform="translate(-220.52 -71.95)"/><ellipse class="cls-11" cx="127.67" cy="336.75" rx="14.95" ry="18.5"/><circle class="cls-11" cx="81.94" cy="188.13" r="4.83"/><circle class="cls-12" cx="219.22" cy="234.46" r="7.76"/><circle class="cls-11" cx="142.62" cy="315.45" r="5.49"/><path class="cls-13" d="M286.92,268.27c1.62,8.05,10.74,21.82,25.13,23.2l3.69-12.25c-10.22-.93-20.54-3.85-25.38-13.36Z" transform="translate(-220.52 -71.95)"/><path class="cls-14" d="M360.09,476.94l7.93,2.52c2.11-7.52,14.09-4.16,12,3.36-2.67,4.24-6.67,5.1-11.51,3.84l8.91,8.91,8.21,2.24,5.63-25.9-28-8Z" transform="translate(-220.52 -71.95)"/><path class="cls-11" d="M312.59,369.43c-20.33,2.4-24.43-32.37-4.11-34.77,25.36-4.27,48.25-13.74,67.08-31.82A183.54,183.54,0,0,1,389.79,290l-2.48-8.07-31.5,24.14c-13.39,9-28.4,8.61-43.53,9.07-10.65.57-19.14,5.8-23.65,13.42C281.26,349.13,288.63,365.26,312.59,369.43Z" transform="translate(-220.52 -71.95)"/><path class="cls-15" d="M489.91,349.85c38,6,68.92-5.57,89.92-41.28-12.23,21.51-21.73,47.11-29.15,75.84-11.47,44.74-38.66,74.83-76.45,95-22.67-.59-34.41-15.4-39.6-38.75.38-12.13-7.14-19.82-19.38-24.84,34.42-3.52,56.21-17.93,57-50.51C479.75,362.82,486.09,358.36,489.91,349.85Z" transform="translate(-220.52 -71.95)"/><path class="cls-16" d="M410.65,354.29c5.4,12.65,13.11,23.55,25.11,29.28a9.74,9.74,0,0,1,2,16.4c-13.1,10.48-29.56,12.46-46.54,13.13,39.23,2.29,76.38,1.48,81-47.74C446.29,376.38,426.1,371.77,410.65,354.29Z" transform="translate(-220.52 -71.95)"/><path class="cls-16" d="M411.64,415.18l-35-4.83c17.73,5.56,32.62,12.79,37,26.23a10.17,10.17,0,0,1,.39,2.37c.88,12.88-10.19,23.35-23.06,22.37-22-1.67-43.63-13.77-57.72-29.54,14,24.39,35.36,38.34,65.24,40.29,1.43.13,2.85.2,4.26.2h.09c13,0,24.52-5.71,31.84-27C436.92,428.36,427.3,419.68,411.64,415.18Z" transform="translate(-220.52 -71.95)"/><path class="cls-17" d="M449.7,471.47l.76-.42C442,465.31,437.75,456.6,436,446.12c-7.68,17.58-20.93,28-43.85,25.79l-3.67,11.5c14.14,1,28,.31,41.43-3.54a5.12,5.12,0,0,1,3.86.37q14.74,8,34.61,4.28l5.85-5.06C463.74,480.57,455.94,477.28,449.7,471.47Z" transform="translate(-220.52 -71.95)"/><path class="cls-18" d="M437.22,220.69c-12.41,1.79-22.32,7-27.22,19.22-4,3.49-7.85,3.88-11.58.5-1.45,12.27-8.5,23-21.76,32-5,6.25-10.26,6-15.77,0,1.21,27.4-31.29,28.83-32.51,1.44l-13.87,3.92-1.91,15.9c2.92.17,5.82.15,8.23-1.33,9.33,22.06,30.27,21.36,49.9,2.27l16.58-12.71c10.14-16,22.67-27.15,38.08-32.46C436.54,241.62,439.87,231.89,437.22,220.69Z" transform="translate(-220.52 -71.95)"/><path class="cls-11" d="M514.57,329c23.78-16.38,48.19-28.88,74-33.14l8.61-10.52c.92-5.9-3.19-6.42-8.9-5.21C560.11,291.13,536,308.08,514.57,329Z" transform="translate(-220.52 -71.95)"/><path class="cls-19" d="M507,292.92l-4.43.87q0,1,0,2c-.19,58.2-86.87,61.31-92.23,3.36q-.31-3.35-.45-6.82l-23.24,32,11.57,22.1,6.13-5.77c4,8.41,10.12,16.14,18.56,23.14l3.28-.18c22.84,13.42,46.44,4.15,70.48-18.58C507.79,326.51,510.38,309.24,507,292.92Z" transform="translate(-220.52 -71.95)"/><path class="cls-11" d="M406.15,371.09c-3.5-7.54-3.54-14.63,2.43-20.93l-5.35-8.1C391.68,354.1,397.73,362.82,406.15,371.09Z" transform="translate(-220.52 -71.95)"/><path class="cls-11" d="M401.53,384c-6.95-6.84-10.79-18-4.68-28l.7-7.26L389.74,339C377.56,360.21,384.78,374,401.53,384Z" transform="translate(-220.52 -71.95)"/><path class="cls-20" d="M285.43,480.87c17.87,16.56,63.8-7,19.8-49.88,33.25,18.92,35,43.83,28.25,56.5S305.88,510.07,285.43,480.87Z" transform="translate(-220.52 -71.95)"/><path class="cls-21" d="M244.09,453.41c9,18,20.9,13.25,12.65,0,14.18,16.38,25.2,29.25,25.2,29.25C268,487.66,250.2,473.41,244.09,453.41Z" transform="translate(-220.52 -71.95)"/><path class="cls-22" d="M272.3,389c-15-29.81-13-74,7-96.68-6.67,20.06-17.51,70.82,30.16,107.1,13.67,14.12-1.42,29.82-1.42,29.82C293.49,419.24,277.8,396.85,272.3,389Z" transform="translate(-220.52 -71.95)"/><ellipse class="cls-23" cx="272.97" cy="444.02" rx="8.33" ry="32.78" transform="translate(-424.07 160.88) rotate(-34.52)"/><ellipse class="cls-23" cx="244.76" cy="384.91" rx="5.83" ry="15.69" transform="translate(-298.76 -9.13) rotate(-12.63)"/><path class="cls-24" d="M438.36,180c3.35,1.86,5.38-8.56-3.12-15.75,16.75,6.63,16.58,21.13,14.85,34.88C443.59,187.56,438.36,180,438.36,180Z" transform="translate(-220.52 -71.95)"/><ellipse class="cls-11" cx="409.77" cy="192.06" rx="12.25" ry="6.92" transform="matrix(0.97, -0.26, 0.26, 0.97, -256.5, 41.97)"/><path class="cls-25" d="M429.57,216.29c6.56,1.91,20.08-16.11,5.08-31.91,17,5.37,17.84,23.55,12,41.37C443,223.67,429.57,216.29,429.57,216.29Z" transform="translate(-220.52 -71.95)"/><ellipse class="cls-26" cx="62.93" cy="211.32" rx="5.39" ry="7.5"/><circle class="cls-26" cx="71.26" cy="221.53" r="2.94"/><path class="cls-18" d="M301.33,369.92c22.41,16.74,44.81,8.3,44.81,8.3L390.95,376c-14.71-16.87-1.21-37.06-1.21-37.06l-4-12.6c-9.53,19.28-49.73,44.36-61.23,45.36S306.41,372.17,301.33,369.92Z" transform="translate(-220.52 -71.95)"/><path class="cls-15" d="M333.25,453.41c4.59,8,11.87,1,3.41-12.1,17.83,16.6,26.62,22.61,26.62,22.61l-6.72,27.46-21.45-7.71C336.64,474.88,333.25,453.41,333.25,453.41Z" transform="translate(-220.52 -71.95)"/><circle class="cls-27" cx="154.49" cy="409.32" r="6.37"/><path class="cls-28" d="M333.72,174.6c15.71-4.09,28.39-12.29,31.56-33.32-6.58,10.14-15.11,17.12-25.68,20.82C336,164.58,333.94,168.66,333.72,174.6Z" transform="translate(-220.52 -71.95)"/><path class="cls-24" d="M368.42,167.92c13,3.14,19.81-3.57,24.57-13.63a63.77,63.77,0,0,1-8.12,27c-4.16-4.42-9.88-8.1-17.26-11Z" transform="translate(-220.52 -71.95)"/><path class="cls-24" d="M368.42,153.34c-3.68,25.35-26.3,31-32,28.58,11,9,20.29,9.15,26.83-4.74C366.86,168.57,371.11,153.62,368.42,153.34Z" transform="translate(-220.52 -71.95)"/><path class="cls-21" d="M354.78,187.16c12.13,2.56,20.5,8.47,23,19.62,1.05,11.43-4.51,14.53-12.47,14.63,7,2.5,2.9,13.91-4.09,11.41,16.5,2.39,28.3-2,28.74-22.65-2.48-5.2-5.06-17.51-.69-24.76a53,53,0,0,0-21.63-15.08A30.66,30.66,0,0,1,354.78,187.16Z" transform="translate(-220.52 -71.95)"/><path class="cls-23" d="M356.72,195h0a5.66,5.66,0,0,1,2.35,6.53c-1.89,5.61-2.26,10.47-.37,14.24a6.19,6.19,0,0,1-.8,6.94h0a6.09,6.09,0,0,1-9.89-1.12c-4.34-7.93-4.26-16.18.82-24.79A5.63,5.63,0,0,1,356.72,195Z" transform="translate(-220.52 -71.95)"/></g><g id="lines"><path class="cls-29" d="M683,162.65a3,3,0,0,1-2.12-5.12l12.34-12.34a3,3,0,0,1,4.24,4.24l-12.34,12.34A3,3,0,0,1,683,162.65Z" transform="translate(-220.52 -71.95)"/><path class="cls-29" d="M489.91,355.78a3,3,0,0,1-2.12-5.12L604.87,233.59a3,3,0,0,1,4.24,4.24L492,354.9A3,3,0,0,1,489.91,355.78Z" transform="translate(-220.52 -71.95)"/><path class="cls-29" d="M614.06,231.64a3,3,0,0,1-2.12-5.12l54.83-54.84a3,3,0,0,1,4.24,4.24l-54.83,54.84A3,3,0,0,1,614.06,231.64Z" transform="translate(-220.52 -71.95)"/><path class="cls-29" d="M448.88,220a3,3,0,0,1-2.12-5.12l76.1-76.1a3,3,0,0,1,4.24,4.24L451,219.12A3,3,0,0,1,448.88,220Z" transform="translate(-220.52 -71.95)"/><path class="cls-29" d="M539.13,129.76a3,3,0,0,1-2.12-5.12l51.8-51.81A3,3,0,0,1,593,77.07l-51.8,51.81A3,3,0,0,1,539.13,129.76Z" transform="translate(-220.52 -71.95)"/><path class="cls-29" d="M502.69,214.18a3,3,0,0,1-2.12-5.12L600.8,108.83a3,3,0,0,1,4.24,4.24L504.81,213.3A3,3,0,0,1,502.69,214.18Z" transform="translate(-220.52 -71.95)"/><path class="cls-29" d="M478.32,238.55a3,3,0,0,1-2.12-5.12l17.3-17.3a3,3,0,0,1,4.24,4.24l-17.3,17.3A3,3,0,0,1,478.32,238.55Z" transform="translate(-220.52 -71.95)"/><path class="cls-29" d="M559.39,196.22a3,3,0,0,1-2.12-5.12l79.89-79.88a3,3,0,0,1,4.24,4.24l-79.89,79.88A3,3,0,0,1,559.39,196.22Z" transform="translate(-220.52 -71.95)"/><path class="cls-29" d="M646.35,109.26a3,3,0,0,1-2.12-5.12L671.67,76.7a3,3,0,0,1,4.24,4.24l-27.44,27.44A3,3,0,0,1,646.35,109.26Z" transform="translate(-220.52 -71.95)"/><path class="cls-29" d="M505,250.64a3,3,0,0,1-2.12-5.12l40.27-40.28a3,3,0,1,1,4.24,4.24l-40.27,40.28A3,3,0,0,1,505,250.64Z" transform="translate(-220.52 -71.95)"/><path class="cls-29" d="M520.51,287.33a3,3,0,0,1-2.12-5.12L615,185.61a3,3,0,0,1,4.24,4.24l-96.61,96.59A3,3,0,0,1,520.51,287.33Z" transform="translate(-220.52 -71.95)"/><path class="cls-29" d="M624.18,183.66a3,3,0,0,1-2.12-5.12l39-39a3,3,0,1,1,4.24,4.24l-39,39A3,3,0,0,1,624.18,183.66Z" transform="translate(-220.52 -71.95)"/><path class="cls-29" d="M532.07,136.83a3,3,0,0,1,0-6h0a3,3,0,0,1,0,6Z" transform="translate(-220.52 -71.95)"/><path class="cls-29" d="M676,169.73a3,3,0,0,1,0-6h0a3,3,0,0,1,0,6Z" transform="translate(-220.52 -71.95)"/><path class="cls-29" d="M552.34,203.29a3,3,0,0,1,0-6h0a3,3,0,0,1,0,6Z" transform="translate(-220.52 -71.95)"/><path class="cls-30" d="M459.51,322.51a9.65,9.65,0,1,0-9.65-9.65A9.66,9.66,0,0,0,459.51,322.51Zm0-16.29a6.65,6.65,0,1,1-6.65,6.64A6.65,6.65,0,0,1,459.51,306.22Z" transform="translate(-220.52 -71.95)"/><path class="cls-30" d="M470.46,286.86a10.69,10.69,0,1,0-10.69-10.69A10.7,10.7,0,0,0,470.46,286.86Zm0-18.38a7.69,7.69,0,1,1-7.69,7.69A7.7,7.7,0,0,1,470.46,268.48Z" transform="translate(-220.52 -71.95)"/><path class="cls-30" d="M434.65,265.83a6.59,6.59,0,1,0-6.59-6.59A6.6,6.6,0,0,0,434.65,265.83Zm0-10.18a3.59,3.59,0,1,1-3.59,3.59A3.59,3.59,0,0,1,434.65,255.65Z" transform="translate(-220.52 -71.95)"/><path class="cls-30" d="M374,472a9.22,9.22,0,1,0,9.22,9.22A9.23,9.23,0,0,0,374,472Zm0,12.45a3.22,3.22,0,1,1,3.22-3.22A3.23,3.23,0,0,1,374,484.5Z" transform="translate(-220.52 -71.95)"/><path class="cls-30" d="M312.59,366.43a22.69,22.69,0,0,1-19.65-34,3,3,0,0,0-5.19-3,28.69,28.69,0,0,0,24.84,43,3,3,0,0,0,0-6Z" transform="translate(-220.52 -71.95)"/><path class="cls-30" d="M598.83,279.4a7.59,7.59,0,0,0-8.79-3c-22.26,7.31-44.81,19.85-83.26,55.89a65.51,65.51,0,0,0,3.36-35.59,6,6,0,0,0-2.65-3.95,5.92,5.92,0,0,0-4.6-.79c-5.21,1.26-8.31-1.25-9.4-3.79s-.76-6.52,3.75-9.42a5.93,5.93,0,0,0,2.6-3.88,6,6,0,0,0-1-4.64A65.55,65.55,0,0,0,481.9,254a6,6,0,0,0-7.76,1,3.33,3.33,0,0,1-5.69-2.65,6,6,0,0,0-4.25-6.55,65.56,65.56,0,0,0-18.49-2.65,66.55,66.55,0,0,0-10.15.79,29.67,29.67,0,0,0,6.09-17.47l.83.33a6,6,0,0,0,4.9-.13,6,6,0,0,0,3.18-3.82,65.51,65.51,0,0,0,2.38-13.27v-.05c4.39-26.1-1-42.05-17.35-51.73a6.23,6.23,0,0,0-9.37,4.57,33,33,0,0,1-4.84,13.45c-9.56-.25-20.3,2.37-30.7,7.76q-1.06-1.37-2.22-2.67c4.7-7,7-16.56,6.73-28.44a4.94,4.94,0,0,0-3.28-4.58,5,5,0,0,0-5.51,1.44A38.94,38.94,0,0,1,371.91,160a76.62,76.62,0,0,0-1.21-19,5,5,0,0,0-9.19-1.73c-5.27,8.55-11.89,14.55-20.24,18.35a18.18,18.18,0,0,0-4.34,2.78c-8.06.36-22.46,1.82-35.78,7.42a134.88,134.88,0,0,0-27.94,16.11,26.19,26.19,0,0,0-2.69,2.27A27.41,27.41,0,0,0,261.87,206a22.45,22.45,0,0,0,5.82,15.57,23,23,0,0,0,13.46,6.6,32.61,32.61,0,0,0-4,13.75A36.86,36.86,0,0,0,279,255.85a160.67,160.67,0,0,0-48,66.74,158.59,158.59,0,0,0-8.25,30.31c-.46,2.68-.86,5.47-1.17,8.26a161.88,161.88,0,0,0-1.06,18.52c0,.75,0,1.51,0,2.26a159.42,159.42,0,0,0,28.44,89,37.74,37.74,0,0,0,35.47,16.56,146.73,146.73,0,0,0,14.21,10.74,26,26,0,0,0,14.4,4.36,26.3,26.3,0,0,0,10.73-2.3,25.89,25.89,0,0,0,13.37-13.57,152.28,152.28,0,0,0,24.36,9.34l-.12.58a9.22,9.22,0,0,0,14.17,9.46,9.13,9.13,0,0,0,3.92-5.84l0-.2A155.19,155.19,0,0,0,403.92,502a153,153,0,0,0,128.25-69.25l.07-.11c14.62-24.53,21.08-45.87,27.32-66.51,7.86-26,15.28-50.51,38.66-77.45A7.61,7.61,0,0,0,598.83,279.4Zm-93.61,29.19A59.23,59.23,0,0,1,502,328a12.73,12.73,0,1,1,3.22-21C505.2,307.5,505.22,308,505.22,308.58ZM462.5,251.53A9.33,9.33,0,0,0,478.58,259,61.22,61.22,0,0,1,494,273.67c-7.16,4.6-8.18,11.76-6,16.82s8.06,9.27,16.26,7.26c.32,1.74.57,3.51.73,5.3a15.71,15.71,0,1,0-4.39,28.59,59.82,59.82,0,0,1-17.83,23.48A23,23,0,0,0,456,327.9a4.52,4.52,0,0,0-3.58,3.55,1,1,0,0,1-1.16.76l-1.85-.38a4.6,4.6,0,0,0-3.87,1,23,23,0,0,0-.15,35.31c-9-.06-20.91-3.09-31.27-15.43a3,3,0,0,0-.5-.6,60.85,60.85,0,0,1-4.05-5.62A22.25,22.25,0,0,0,404,305.56c2.82-3.82,5.77-7.6,8.92-11.24a3,3,0,0,0-1.38-4.83,31.84,31.84,0,0,0-9.87-1.42A40.42,40.42,0,0,0,406,277.15a3,3,0,0,0-3.4-3.63,52.82,52.82,0,0,0-5.95,1.32,59.08,59.08,0,0,1,23.71-20.16l.21-.07c.87-.36,1.7-.74,2.52-1.13a59.73,59.73,0,0,1,22.61-4.41A57.42,57.42,0,0,1,462.5,251.53ZM412.79,412.16a3,3,0,0,0-.36,0,118.34,118.34,0,0,1-34.95-4.71,3,3,0,0,0-1.66,5.77,124.64,124.64,0,0,0,34.23,4.94c.7,0,1.39,0,2.09,0,11.56,2.89,18.52,10,19.41,19.4,0,0,0,0,0,0,0,.19,0,.37.06.56a23.59,23.59,0,0,1-.1,4.18c-1.41,12.64-13.2,26.26-32.26,26.59a38.61,38.61,0,0,1-7.32-.63c-13.7-2.34-22.9-5.61-31.78-11.28a67.7,67.7,0,0,1-19.37-18.27c-12.72-18.29-9.9-33.66-8.09-39.42,5.34-17,29.77-24.36,59.52-17.93,7.66,6.47,18.64,10.62,32,11.81h.27a3,3,0,0,0,.26-6c-18.37-1.64-31.64-9.25-36.43-20.88a24.39,24.39,0,0,1-1.69-6.65,51.33,51.33,0,0,0,8.16,1,24.84,24.84,0,0,0,9.65,12.88,3,3,0,0,0,3.52-4.86,19.78,19.78,0,0,1-6.89-8.28,38.31,38.31,0,0,0,9.8-2.47c9.5,10.53,21.51,16.18,34.89,16.18h0a65.16,65.16,0,0,0,23.31-4.3c-1,12.94-6.42,23.18-16.12,30.49C443,407.72,428.74,411.77,412.79,412.16ZM378,493.75l-.15,0-.26,0q-5.86-1.06-11.61-2.59a3,3,0,0,0-.34-.1h-.11c-1.8-.49-3.59-1-5.36-1.57l5.52-22.55a92.19,92.19,0,0,0,22.09,6.76l-5.11,20.88C381.06,494.27,379.51,494,378,493.75Zm18.78-198.87a19.45,19.45,0,0,1,8.42-.64q-2,2.51-4,5.07A25.19,25.19,0,0,1,396.74,294.88Zm1.94-14.38a34.26,34.26,0,0,1-5.19,8.9,35.45,35.45,0,0,1-2.08-6.21A44.57,44.57,0,0,1,398.67,280.5Zm3.38,27.72a19.23,19.23,0,0,1,6,35.65c-.41-.7-.82-1.42-1.22-2.17a5,5,0,0,0-8.41-.62q-.67.91-1.24,1.87a59.31,59.31,0,0,1-3.91-6.25l-.07-.14a58.84,58.84,0,0,1-4.09-9.69q2.44-3.49,4.88-7.06C396.59,316,399.27,312.09,402.05,308.22Zm-2.18,46.28a16.86,16.86,0,0,1,2.45-8.51,71.13,71.13,0,0,0,4.51,7A31.67,31.67,0,0,1,399.87,354.5Zm-5.37-5.09a22.17,22.17,0,0,0-.64,5.18,49.75,49.75,0,0,1-7.17-1,26.42,26.42,0,0,1,3.59-10.08A66.25,66.25,0,0,0,394.5,349.41Zm55.84,18.48a20,20,0,0,1-2.86-32.8,1.58,1.58,0,0,1,1.35-.33l1.85.38a4,4,0,0,0,4.71-3.08,1.55,1.55,0,0,1,1.19-1.22,20,20,0,0,1,22.14,27.23A59.13,59.13,0,0,1,450.34,367.89ZM432.2,163.06a.24.24,0,0,1,.13-.2.23.23,0,0,1,.23,0c9.9,5.84,15,14,15.8,26.32a28,28,0,0,0-8-8A32.62,32.62,0,0,0,428,176.37,39.33,39.33,0,0,0,432.2,163.06Zm-85.94-1.2a49.28,49.28,0,0,0,6.39-4,10.43,10.43,0,0,0,5.75,6.16,9.82,9.82,0,0,0,3.86.8,9.48,9.48,0,0,0,3.16-.55,33.86,33.86,0,0,1-3.5,10.36,12,12,0,0,1-12.76-1.92A10.52,10.52,0,0,1,346.26,161.85Zm14.7,24a34.86,34.86,0,0,0,8-12.1,47.42,47.42,0,0,1,17.16,13.57c-2.6,4-2.92,9.17-.94,15.53l.06.17c3.71,9.8,2.67,17.51-3.09,22.91a19.86,19.86,0,0,1-16.33,4.86c-8.19-1.09-14.3-5.87-16.77-13.11-3.19-9.37.47-20.59,9.8-30A17.58,17.58,0,0,0,361,185.8Zm28.27-30.75a55.64,55.64,0,0,1-1.32,11.8,6.68,6.68,0,0,1-5-.71,5.37,5.37,0,0,1-2.64-3.75A45.88,45.88,0,0,0,389.22,155.06Zm-11.6,8.88a8.29,8.29,0,0,0,3.79,4.79,9.67,9.67,0,0,0,4.91,1.36l.69,0a30.42,30.42,0,0,1-2.91,6.47,58.44,58.44,0,0,0-13.39-8.6c.09-.4.19-.8.27-1.2A42.61,42.61,0,0,0,377.63,163.93Zm-12.42-19.32a66.42,66.42,0,0,1,.67,16.15,6.6,6.6,0,0,1-6.31.54,7.58,7.58,0,0,1-4.39-5.41A53.85,53.85,0,0,0,365.21,144.61Zm-22.31,18.93A13.31,13.31,0,0,0,347.12,175a14.13,14.13,0,0,0,9.68,3.73,15.93,15.93,0,0,0,2.65-.23,29.18,29.18,0,0,1-2.7,3.07,11.87,11.87,0,0,1-10.29,3.26,11.35,11.35,0,0,1-8.41-6q-.21-.4-.4-.82C335.29,172.72,337.64,166.44,342.89,163.54ZM290.36,284.77a1.5,1.5,0,0,0,1.5-1.5,5.78,5.78,0,0,1,5-5.71,32.92,32.92,0,0,0,5.49,2.35,5.77,5.77,0,0,1-9.17,7,1.5,1.5,0,0,0-2.33,1.89,8.77,8.77,0,0,0,15.25-7.92,31.22,31.22,0,0,0,6,.55,14.74,14.74,0,0,1,.12,1.85,14.54,14.54,0,1,1-23.31-11.58,36.14,36.14,0,0,0,4.67,3.83,8.78,8.78,0,0,0-4.67,7.75A1.5,1.5,0,0,0,290.36,284.77Zm31,210.06A20.07,20.07,0,0,1,302,493.25a143.21,143.21,0,0,1-41.93-43.12c-2.12-3.34-4.13-6.82-6-10.35a3,3,0,1,0-5.3,2.8c1.94,3.66,4,7.28,6.23,10.75a152.29,152.29,0,0,0,23,28.27,32.57,32.57,0,0,1-24-14.09,153.44,153.44,0,0,1-27.37-85.66c0-.72,0-1.45,0-2.18a155.8,155.8,0,0,1,1-17.84c.31-2.73.68-5.32,1.13-7.94a152.47,152.47,0,0,1,7.93-29.18,154.65,154.65,0,0,1,44.83-63.09,39.62,39.62,0,0,0,3.48,5.52,20.44,20.44,0,0,0-5.67,25.2,85.07,85.07,0,0,0,26.9,108.25,13.93,13.93,0,0,1,5.7,13.71A26,26,0,0,1,307.68,425c-13-11.46-23.76-25-29.81-37.83a3,3,0,1,0-5.43,2.55C279.17,404,291.34,419,306,431.44h0c3.07,2.6,6.25,5.09,9.51,7.43,12.52,9,19.34,23.65,17.77,38.32q-.12,1.17-.29,2.31A19.85,19.85,0,0,1,321.35,494.83ZM319,434q-3.44-2.46-6.74-5.14a31.62,31.62,0,0,0,5.49-13.52,20,20,0,0,0-8.16-19.64,79.1,79.1,0,0,1-26.37-97.82,20.52,20.52,0,0,0,34.94-14.62,20.72,20.72,0,0,0-.15-2.42,37.61,37.61,0,0,0,7.88-2.42c.29,6.83,3.23,12.34,8.44,15.54a19,19,0,0,0,9.92,2.74A20.26,20.26,0,0,0,355.88,293a18.84,18.84,0,0,0,8-14.27,12.36,12.36,0,0,0,5.61,1.28,11.48,11.48,0,0,0,9.8-6.11,3,3,0,1,0-5.2-3,5.49,5.49,0,0,1-4.7,3.1,7.73,7.73,0,0,1-6.44-3.94,3,3,0,0,0-5.48,2.2c1.45,6.91-.33,12.53-5,15.83a14,14,0,0,1-15,.73c-4.45-2.73-6.35-8.05-5.34-15a3,3,0,0,0-4.47-3c-10.14,5.88-20.64,6.07-29.55.54a30.51,30.51,0,0,1-6.47-5.42l-.09-.1a32.57,32.57,0,0,1-8.37-23.53c.71-10.77,7.36-19.52,18.73-24.65a3,3,0,1,0-2.47-5.47,41.05,41.05,0,0,0-14.33,10.35c-5.41-.31-17.19-2.6-17.22-16.55a21.41,21.41,0,0,1,6.8-15.46,20.41,20.41,0,0,1,2.1-1.78,128.82,128.82,0,0,1,26.69-15.4c10.11-4.25,21-6,28.78-6.63a16.78,16.78,0,0,0-.07,13.71q.25.57.55,1.13a17.29,17.29,0,0,0,12.79,9.14,18,18,0,0,0,2.82.22h0c-6.21,9.34-8.12,19.58-5,28.63,3.18,9.33,11.27,15.74,21.65,17.12a28.53,28.53,0,0,0,3.78.25,25.35,25.35,0,0,0,17.45-6.68c5.29-5,10.39-14.06,4.64-29.32-2-6.58-.58-9.54.87-11.19,11.95-6.61,22.64-8.57,31.08-8H423a29.49,29.49,0,0,1,14,4.38c8.37,5.57,10.47,13.73,10.14,21.72,0,.18-.06.36-.09.54a3,3,0,0,0,0,.9,63,63,0,0,1-2.25,11.84c-1.81-.75-3.53-1.39-5.12-1.9-17.12-7.26-34-3.64-45,9.68a10.53,10.53,0,0,0-2.3,8.35A10.77,10.77,0,0,0,403,246.41a10.51,10.51,0,0,0,9.5-5.81c5.15-10.36,15.31-15.78,23.22-15.73-.09,10.62-5,18.21-15,23.11a65.19,65.19,0,0,0-33.14,30.43c-7.42,3.73-13.3,8.78-19.48,14.12-12.82,11.08-26.08,22.53-55.49,22.53a3,3,0,0,0,0,6c31.64,0,46.4-12.75,59.41-24a116.53,116.53,0,0,1,14-10.9c2.13,7.75,5.9,13.56,11.63,18-3,4.1-5.81,8.23-8.59,12.29-1.9,2.77-3.79,5.53-5.7,8.23-13.83,19.64-28.77,37.56-59.15,41.13a3,3,0,0,0,.35,6l.35,0c30.23-3.55,46.59-20.64,60-38.93q1,2.46,2.15,4.82a32.44,32.44,0,0,0-6.51,17.86,3,3,0,0,0,0,.45,30.52,30.52,0,0,0,2.27,12.66,31.65,31.65,0,0,0,3,5.5c-29.35-4.19-52.91,4.9-58.71,23.4-2.07,6.6-5.35,24.17,8.89,44.64a73.69,73.69,0,0,0,21.07,19.9c1.07.69,2.15,1.34,3.24,2l-5.75,23.48a147.53,147.53,0,0,1-15.57-6.61c0-.16.06-.32.09-.48q.18-1.26.32-2.54C341,461,333.29,444.24,319,434Zm80.23-201.22c.66-.79,1.33-1.51,2-2.2l6.51,6.1c-.22.41-.44.82-.65,1.24a4.55,4.55,0,0,1-4.12,2.49,4.77,4.77,0,0,1-4.72-4A4.47,4.47,0,0,1,399.24,232.79Zm10.1,1.27-5.91-5.53a28.93,28.93,0,0,1,7.53-4.68l2.89,4.68A35.34,35.34,0,0,0,409.34,234.06Zm6.76-7.59-2.26-3.66a29.61,29.61,0,0,1,8.47-1.21l1.38,0A34,34,0,0,0,416.1,226.46ZM373.62,499.09a3.22,3.22,0,0,1-6.33-1.25l0-.2q3.13.77,6.3,1.39Zm15-3.87,5-20.63a42.56,42.56,0,0,0,5,.33h.64c17.8-.31,30.24-10.62,35.49-22.43,4.09,11.21,11.51,20.82,20.57,25.9a31.52,31.52,0,0,0,10.93,3.8A147.28,147.28,0,0,1,403.92,496,150.63,150.63,0,0,1,388.62,495.22ZM593.69,284.76c-24.22,27.9-31.83,53-39.88,79.64-6.13,20.28-12.48,41.24-26.7,65.12a147.59,147.59,0,0,1-44.84,44h0c-8,4-16.26,3.92-23.89-.36-11.23-6.31-19.6-20.79-20.82-36,0,0,0-.07,0-.11a26.19,26.19,0,0,0-12.42-19.9c12.29-1.8,23.2-5.84,31.42-12,11.78-8.87,18.19-22,18.66-38a65.83,65.83,0,0,0,16.53-11.89,3,3,0,0,0,.34-.27c36.8-36.8,66.35-61.82,99.88-72.84a1.58,1.58,0,0,1,1.92.66A1.6,1.6,0,0,1,593.69,284.76Z" transform="translate(-220.52 -71.95)"/><path class="cls-30" d="M429.58,321.68a3,3,0,0,0,0-6h0a3,3,0,0,0,0,6Z" transform="translate(-220.52 -71.95)"/><path class="cls-30" d="M412.92,268.68h0a1.5,1.5,0,1,0,1.51,1.5A1.5,1.5,0,0,0,412.91,268.68Z" transform="translate(-220.52 -71.95)"/><path class="cls-30" d="M426.17,348a1.5,1.5,0,0,0,0-3h0a1.5,1.5,0,0,0,0,3Z" transform="translate(-220.52 -71.95)"/><path class="cls-30" d="M476.92,297.93h0a1.5,1.5,0,1,0,1.51,1.5A1.5,1.5,0,0,0,476.91,297.93Z" transform="translate(-220.52 -71.95)"/><path class="cls-30" d="M488.71,343.43a3,3,0,0,0,0-6h0a3,3,0,0,0,0,6Z" transform="translate(-220.52 -71.95)"/><path class="cls-30" d="M274.8,380.31a3,3,0,0,0-3-3h0a3,3,0,1,0,3,3Z" transform="translate(-220.52 -71.95)"/><path class="cls-30" d="M426.18,192.53a9.65,9.65,0,0,1,3.86,2,3,3,0,0,0,4.09-4.39,15.41,15.41,0,0,0-6.22-3.35,3,3,0,0,0-1.74,5.74Z" transform="translate(-220.52 -71.95)"/><path class="cls-30" d="M367.91,224.41a13.63,13.63,0,0,0,12.62-18.76,3,3,0,0,0-2.78-1.87H358.06a3,3,0,0,0-2.77,1.85,13.38,13.38,0,0,0-1,5.15A13.65,13.65,0,0,0,367.91,224.41Zm-7.57-14.63h8.2a4.77,4.77,0,0,0,3.55,7.37,7.56,7.56,0,0,1-4.18,1.26,7.64,7.64,0,0,1-7.63-7.63A7.54,7.54,0,0,1,360.34,209.79Z" transform="translate(-220.52 -71.95)"/></g></svg>